# Blender 4.2.1 LTS
# www.blender.org
mtllib BaseDamaged3.mtl
o Cube.002
v -7.645161 0.166353 -47.238377
v -6.860209 2.182955 -48.023331
v -7.645161 0.166353 -62.528698
v 5.522762 0.989382 -59.849834
v -6.860209 2.182955 -61.743744
v 7.645161 0.166353 -47.238377
v 6.860209 2.182955 -48.023331
v 7.645161 0.166353 -62.528698
v 6.860209 2.182955 -61.743744
v 6.436832 1.940742 -59.471214
v 6.493134 0.989382 -59.754265
v 6.436832 1.940742 -50.280540
v 6.493133 0.989382 -49.997494
v 5.522762 1.940742 -50.190514
v 5.522762 0.989382 -49.901920
v 4.608693 1.940742 -50.280540
v 4.552391 0.989382 -49.997494
v 3.729751 1.940742 -50.547165
v 3.619311 0.989382 -50.280540
v 2.919713 1.940742 -50.980141
v 2.759380 0.989382 -50.740185
v 2.209709 1.940742 -51.562824
v 2.005644 0.989382 -51.358761
v 1.627024 1.940742 -52.272827
v 1.387068 0.989382 -52.112495
v 1.194050 1.940742 -53.082867
v 0.927426 0.989382 -52.972427
v 0.927426 1.940742 -53.961807
v 0.644379 0.989382 -53.905510
v 0.837398 1.940742 -54.875877
v 0.548806 0.989382 -54.875881
v 0.927426 1.940742 -55.789948
v 0.644380 0.989382 -55.846249
v 1.194050 1.940742 -56.668888
v 0.927427 0.989382 -56.779331
v 1.627025 1.940742 -57.478928
v 1.387070 0.989382 -57.639259
v 2.209710 1.940742 -58.188931
v 2.005646 0.989382 -58.392998
v 2.919714 1.940742 -58.771614
v 2.759382 0.989382 -59.011570
v 3.729751 1.940742 -59.204590
v 3.619313 0.989382 -59.471214
v 4.608694 1.940742 -59.471214
v 4.552393 0.989382 -59.754261
v 5.522763 1.940742 -59.561241
v 6.411829 2.180508 -50.406235
v 6.860209 2.182955 -50.543610
v 5.978058 2.178521 -50.362450
v 1.123173 2.182955 -53.760365
v 1.313661 2.182955 -53.132412
v 1.734671 2.182955 -52.344757
v 2.301255 2.182955 -51.654373
v 4.407248 2.182955 -50.476288
v 3.779295 2.182955 -50.666775
v 2.991641 2.182955 -51.087788
v 2.451912 2.182955 -58.221024
v 2.991641 2.182955 -58.663971
v 3.779296 2.182955 -59.084980
v 6.860209 2.182955 -59.208145
v 5.522763 2.182955 -59.431778
v 6.411575 2.182955 -59.344238
v 4.633951 2.182955 -59.344234
v 2.245936 2.179121 -58.033192
v 2.300275 2.180358 -58.098366
v 0.965306 2.180040 -54.875877
v 1.054152 2.182476 -53.987015
v 1.110963 2.176287 -55.963360
v 1.051320 2.177072 -55.765305
v 4.633900 2.182476 -50.407269
v 5.522762 2.180040 -50.318420
v 2.058844 2.175494 -57.808262
v 1.310286 2.176120 -56.620743
v 1.731477 2.175768 -57.409134
v 0.564879 0.166353 -55.862064
v 1.319673 0.166353 -57.684296
v 0.852538 0.166353 -56.810349
v 2.714349 0.166353 -59.078972
v 4.536580 0.166353 -59.833763
v 3.588294 0.166353 -59.546104
v 1.948329 0.166353 -58.450314
v 0.467747 0.166353 -54.875881
v 0.852537 0.166353 -52.941410
v 0.564878 0.166353 -53.889694
v 5.522762 0.166353 -59.930897
v 7.457234 0.166353 -59.546108
v 7.645161 0.166353 -59.445656
v 6.508948 0.166353 -59.833767
v 2.714345 0.166353 -50.672787
v 3.588290 0.166353 -50.205654
v 7.457232 0.166353 -50.205650
v 7.645161 0.166353 -50.306103
v 5.522761 0.166353 -49.820862
v 6.508946 0.166353 -49.917992
v 4.536576 0.166353 -49.917992
v 1.319670 0.166353 -52.067463
v 1.948325 0.166353 -51.301445
v 6.954489 1.940742 -50.437569
v 7.437084 0.700918 -50.254292
v 7.324801 0.989382 -50.249779
v 7.437086 0.700913 -59.497463
v 7.324801 0.989382 -59.501980
v 6.939414 1.940742 -59.318760
v 6.969825 1.847741 -59.338875
vn -0.9319 0.3627 -0.0000
vn -0.0000 0.3627 -0.9319
vn 0.0001 1.0000 -0.0000
vn -0.0000 0.3627 0.9319
vn -0.0000 -1.0000 -0.0000
vn 0.9319 0.3627 -0.0000
vn 0.9321 0.3623 0.0021
vn -0.0865 -0.4696 0.8786
vn -0.0938 -0.2890 0.9527
vn -0.0975 -0.0976 0.9904
vn -0.2563 -0.4696 0.8448
vn -0.2779 -0.2890 0.9161
vn -0.2889 -0.0975 0.9524
vn -0.4691 -0.0975 0.8777
vn -0.4692 -0.0975 -0.8777
vn -0.2563 -0.4696 -0.8448
vn -0.2779 -0.2890 -0.9161
vn -0.2889 -0.0975 -0.9524
vn -0.0865 -0.4696 -0.8786
vn -0.0938 -0.2890 -0.9527
vn -0.0975 -0.0975 -0.9904
vn 0.0865 -0.4696 -0.8786
vn 0.0938 -0.2890 -0.9527
vn 0.0976 -0.0975 -0.9904
vn 0.2563 -0.4696 -0.8448
vn 0.2779 -0.2890 -0.9161
vn 0.2889 -0.0975 -0.9524
vn 0.4162 -0.4696 -0.7786
vn 0.4513 -0.2890 -0.8443
vn 0.4691 -0.0975 -0.8777
vn 0.5601 -0.4696 -0.6825
vn 0.6073 -0.2890 -0.7400
vn 0.6314 -0.0975 -0.7693
vn 0.7400 -0.2890 -0.6073
vn 0.7693 -0.0975 -0.6314
vn 0.6825 -0.4696 -0.5601
vn 0.7786 -0.4696 -0.4162
vn 0.8443 -0.2890 -0.4513
vn 0.8777 -0.0975 -0.4691
vn 0.9161 -0.2890 -0.2779
vn 0.9524 -0.0975 -0.2889
vn 0.8448 -0.4696 -0.2563
vn 0.8786 -0.4696 -0.0865
vn 0.9527 -0.2890 -0.0938
vn 0.9904 -0.0975 -0.0975
vn 0.9904 -0.0975 0.0976
vn 0.8786 -0.4696 0.0865
vn 0.9527 -0.2890 0.0938
vn 0.8448 -0.4696 0.2563
vn 0.9161 -0.2890 0.2779
vn 0.9524 -0.0975 0.2889
vn 0.8777 -0.0975 0.4691
vn 0.7786 -0.4696 0.4162
vn 0.8443 -0.2890 0.4513
vn 0.6825 -0.4696 0.5601
vn 0.7400 -0.2890 0.6073
vn 0.7693 -0.0975 0.6314
vn 0.5601 -0.4696 0.6825
vn 0.6073 -0.2890 0.7400
vn 0.6314 -0.0975 0.7693
vn 0.4162 -0.4696 0.7786
vn 0.4513 -0.2890 0.8443
vn 0.4691 -0.0975 0.8777
vn 0.2563 -0.4696 0.8448
vn 0.2779 -0.2890 0.9161
vn 0.2889 -0.0975 0.9524
vn 0.0865 -0.4696 0.8786
vn 0.0938 -0.2890 0.9527
vn 0.0976 -0.0975 0.9904
vt 0.375000 0.000000
vt 0.625000 0.000000
vt 0.625000 0.250000
vt 0.375000 0.250000
vt 0.625000 0.500000
vt 0.375000 0.500000
vt 0.625000 0.546201
vt 0.875000 0.500000
vt 0.875000 0.750000
vt 0.625000 0.750000
vt 0.625000 0.704078
vt 0.633023 0.706581
vt 0.640581 0.707379
vt 0.648429 0.708181
vt 0.663613 0.706562
vt 0.667440 0.705305
vt 0.678143 0.701834
vt 0.691474 0.694162
vt 0.703118 0.683839
vt 0.712662 0.671259
vt 0.719760 0.656907
vt 0.722909 0.645465
vt 0.724143 0.641335
vt 0.725646 0.625140
vt 0.724189 0.608933
vt 0.723119 0.605325
vt 0.719807 0.593346
vt 0.712697 0.578981
vt 0.707100 0.571709
vt 0.703992 0.567610
vt 0.703101 0.566423
vt 0.700488 0.564188
vt 0.691434 0.556117
vt 0.678107 0.548445
vt 0.663587 0.543721
vt 0.648416 0.542126
vt 0.633026 0.543721
vt 0.375000 0.750000
vt 0.625000 1.000000
vt 0.375000 1.000000
vt 0.125000 0.750000
vt 0.125000 0.500000
vt 0.375000 0.550408
vt 0.371927 0.548766
vt 0.356423 0.544063
vt 0.340298 0.542475
vt 0.324174 0.544063
vt 0.308669 0.548766
vt 0.294380 0.556404
vt 0.281856 0.566682
vt 0.271577 0.579207
vt 0.263939 0.593496
vt 0.259236 0.609001
vt 0.257648 0.625125
vt 0.259236 0.641250
vt 0.263939 0.656754
vt 0.271577 0.671043
vt 0.281856 0.683568
vt 0.294380 0.693847
vt 0.308669 0.701484
vt 0.324174 0.706188
vt 0.340298 0.707776
vt 0.356423 0.706188
vt 0.371927 0.701484
vt 0.375000 0.699842
vt 0.596641 0.704975
vt 0.442107 0.702864
vt 0.479093 0.704159
vt 0.596660 0.545219
vt 0.585760 0.545257
vt 0.479106 0.546101
vt 0.442108 0.547393
vt 0.750000 0.625000
vt 0.718750 0.625000
vt 0.718750 0.642266
vt 0.750000 0.642266
vt 0.750000 0.562500
vt 0.718750 0.562500
vt 0.718750 0.510509
vt 0.750000 0.510509
vt 0.700881 0.625000
vt 0.702346 0.642266
vt 0.690896 0.562500
vt 0.700105 0.618890
vt 0.687500 0.510509
vt 0.687500 0.544277
vt 0.680779 0.510509
vt 0.319221 0.510509
vt 0.312500 0.510509
vt 0.312500 0.544278
vt 0.299655 0.625000
vt 0.281250 0.625000
vt 0.281250 0.642091
vt 0.297654 0.642266
vt 0.309104 0.562500
vt 0.281250 0.562500
vt 0.281250 0.510509
vt 0.250000 0.625000
vt 0.250000 0.642058
vt 0.265999 0.641950
vt 0.250000 0.562500
vt 0.250000 0.510509
vt 0.218750 0.625000
vt 0.218750 0.642232
vt 0.218750 0.562500
vt 0.218750 0.510509
vt 0.187500 0.625000
vt 0.187500 0.642266
vt 0.210458 0.642266
vt 0.187500 0.562500
vt 0.187500 0.510509
vt 0.156250 0.625000
vt 0.156250 0.642266
vt 0.156250 0.562500
vt 0.156250 0.510509
vt 0.125000 0.625000
vt 0.125000 0.642266
vt 0.125000 0.562500
vt 0.125000 0.510509
vt 0.093750 0.562500
vt 0.093750 0.625000
vt 0.093750 0.510509
vt 0.093750 0.642266
vt 0.062500 0.625000
vt 0.062500 0.642266
vt 0.062500 0.562500
vt 0.062500 0.510509
vt 0.031250 0.562500
vt 0.031250 0.625000
vt 0.031250 0.510509
vt 0.031250 0.642232
vt 0.039542 0.642266
vt 0.000000 0.625000
vt 0.000000 0.642058
vt 0.000000 0.562500
vt 0.000000 0.510509
vt 0.968750 0.510509
vt 0.968750 0.562500
vt 1.000000 0.562500
vt 1.000000 0.510509
vt 1.000000 0.642058
vt 1.000000 0.625000
vt 0.968750 0.625000
vt 0.968750 0.641847
vt 0.937500 0.625000
vt 0.937500 0.641779
vt 0.961513 0.641791
vt 0.937500 0.562500
vt 0.937500 0.510509
vt 0.906250 0.510509
vt 0.906250 0.562500
vt 0.906250 0.625000
vt 0.906250 0.641754
vt 0.875000 0.625000
vt 0.875000 0.642081
vt 0.877972 0.641993
vt 0.888205 0.641734
vt 0.875000 0.562500
vt 0.875000 0.510509
vt 0.843750 0.625000
vt 0.843750 0.642266
vt 0.868177 0.642266
vt 0.843750 0.562500
vt 0.843750 0.510509
vt 0.812500 0.625000
vt 0.812500 0.642266
vt 0.812500 0.562500
vt 0.812500 0.510509
vt 0.781250 0.625000
vt 0.781250 0.642266
vt 0.781250 0.562500
vt 0.781250 0.510509
s 0
f 1/1/1 2/2/1 5/3/1 3/4/1
f 3/4/2 5/3/2 9/5/2 8/6/2
f 60/7/3 9/5/3 5/8/3 2/9/3 7/10/3 48/11/3 47/12/3 49/13/3 71/14/3 70/15/3 54/16/3 55/17/3 56/18/3 53/19/3 52/20/3 51/21/3 50/22/3 67/23/3 66/24/3 69/25/3 68/26/3 73/27/3 74/28/3 72/29/3 64/30/3 65/31/3 57/32/3 58/33/3 59/34/3 63/35/3 61/36/3 62/37/3
f 6/38/4 7/10/4 2/39/4 1/40/4
f 6/38/5 1/41/5 3/42/5 8/6/5 87/43/5 86/44/5 88/45/5 85/46/5 79/47/5 80/48/5 78/49/5 81/50/5 76/51/5 77/52/5 75/53/5 82/54/5 84/55/5 83/56/5 96/57/5 97/58/5 89/59/5 90/60/5 95/61/5 93/62/5 94/63/5 91/64/5 92/65/5
f 98/66/6 48/11/6 7/10/6 6/38/6 92/65/6 99/67/6 100/68/6
f 87/43/7 8/6/7 9/5/7 60/7/7 103/69/7 104/70/7 102/71/7 101/72/7
f 46/73/8 10/74/8 62/75/8 61/76/8
f 4/77/9 11/78/9 10/74/9 46/73/9
f 88/79/10 11/78/10 4/77/10 85/80/10
f 10/74/11 103/81/11 60/82/11 62/75/11
f 103/81/12 10/74/12 11/78/12 102/83/12 104/84/12
f 102/83/13 11/78/13 88/79/13 86/85/13 101/86/13
f 101/86/14 86/85/14 87/87/14
f 92/88/15 91/89/15 99/90/15
f 98/91/16 12/92/16 47/93/16 48/94/16
f 100/95/17 13/96/17 12/92/17 98/91/17
f 91/89/18 94/97/18 13/96/18 100/95/18 99/90/18
f 47/93/19 12/92/19 14/98/19 71/99/19 49/100/19
f 13/96/20 15/101/20 14/98/20 12/92/20
f 93/102/21 15/101/21 13/96/21 94/97/21
f 14/98/22 16/103/22 70/104/22 71/99/22
f 15/101/23 17/105/23 16/103/23 14/98/23
f 95/106/24 17/105/24 15/101/24 93/102/24
f 16/103/25 18/107/25 55/108/25 54/109/25 70/104/25
f 17/105/26 19/110/26 18/107/26 16/103/26
f 90/111/27 19/110/27 17/105/27 95/106/27
f 18/107/28 20/112/28 56/113/28 55/108/28
f 19/110/29 21/114/29 20/112/29 18/107/29
f 89/115/30 21/114/30 19/110/30 90/111/30
f 20/112/31 22/116/31 53/117/31 56/113/31
f 21/114/32 23/118/32 22/116/32 20/112/32
f 23/118/33 21/114/33 89/115/33 97/119/33
f 23/118/34 25/120/34 24/121/34 22/116/34
f 96/122/35 25/120/35 23/118/35 97/119/35
f 53/117/36 22/116/36 24/121/36 52/123/36
f 52/123/37 24/121/37 26/124/37 51/125/37
f 25/120/38 27/126/38 26/124/38 24/121/38
f 83/127/39 27/126/39 25/120/39 96/122/39
f 27/126/40 29/128/40 28/129/40 26/124/40
f 84/130/41 29/128/41 27/126/41 83/127/41
f 51/125/42 26/124/42 28/129/42 67/131/42 50/132/42
f 67/131/43 28/129/43 30/133/43 66/134/43
f 29/128/44 31/135/44 30/133/44 28/129/44
f 82/136/45 31/135/45 29/128/45 84/130/45
f 75/137/46 33/138/46 31/139/46 82/140/46
f 66/141/47 30/142/47 32/143/47 69/144/47
f 31/139/48 33/138/48 32/143/48 30/142/48
f 69/144/49 32/143/49 34/145/49 73/146/49 68/147/49
f 33/138/50 35/148/50 34/145/50 32/143/50
f 77/149/51 35/148/51 33/138/51 75/137/51
f 76/150/52 37/151/52 35/148/52 77/149/52
f 34/145/53 36/152/53 74/153/53 73/146/53
f 35/148/54 37/151/54 36/152/54 34/145/54
f 36/152/55 38/154/55 65/155/55 64/156/55 72/157/55 74/153/55
f 37/151/56 39/158/56 38/154/56 36/152/56
f 81/159/57 39/158/57 37/151/57 76/150/57
f 65/155/58 38/154/58 40/160/58 58/161/58 57/162/58
f 39/158/59 41/163/59 40/160/59 38/154/59
f 78/164/60 41/163/60 39/158/60 81/159/60
f 58/161/61 40/160/61 42/165/61 59/166/61
f 41/163/62 43/167/62 42/165/62 40/160/62
f 80/168/63 43/167/63 41/163/63 78/164/63
f 59/166/64 42/165/64 44/169/64 63/170/64
f 43/167/65 45/171/65 44/169/65 42/165/65
f 79/172/66 45/171/66 43/167/66 80/168/66
f 63/170/67 44/169/67 46/73/67 61/76/67
f 45/171/68 4/77/68 46/73/68 44/169/68
f 85/80/69 4/77/69 45/171/69 79/172/69
