# Blender 4.2.1 LTS
# www.blender.org
mtllib BaseFullAlt.mtl
o Cube.004
v -7.645162 0.166353 -65.457863
v -6.558699 2.182871 -66.544327
v -7.645162 0.166353 -80.748192
v -6.558699 2.182871 -79.661728
v 7.645162 0.166353 -65.457863
v 6.558699 2.183040 -66.544327
v 7.645162 0.166353 -80.748192
v 6.558699 2.183040 -79.661728
v 7.645162 0.166353 -74.772881
v 7.645162 0.166353 -71.433174
v 6.558699 2.183040 -71.131660
v 6.558699 2.183040 -75.074394
v 5.877541 2.177593 -71.131660
v 5.877541 2.177593 -75.074394
v 7.408580 0.774149 -71.433174
v 7.096791 1.459473 -71.433174
v 7.096791 1.459473 -74.772881
v 7.408580 0.774149 -74.772881
v 6.114123 1.454111 -71.433174
v 6.425912 0.768786 -71.433174
v 6.425912 0.768786 -74.772881
v 6.114123 1.454111 -74.772881
v -4.316881 1.449633 -74.772881
v -4.316881 1.449633 -71.433174
v -4.854973 2.173200 -75.074394
v -4.854973 2.173200 -71.131660
v 1.697153 1.452215 -78.789566
v 0.100089 1.451529 -78.789566
v -0.203826 2.175096 -79.091080
v 1.996259 2.175612 -79.091080
v -0.203826 2.175096 -75.074394
v 1.996258 2.175612 -75.074394
v 1.697153 1.452215 -74.772881
v 0.100089 1.451529 -74.772881
v 1.996258 2.175612 -71.131660
v -0.203826 2.175096 -71.131660
v 0.100089 1.451529 -71.433174
v 1.697153 1.452215 -71.433174
v 1.697153 1.452215 -67.416489
v 0.100089 1.451529 -67.416489
v -0.203826 2.175096 -67.114975
v 1.996258 2.175612 -67.114975
v -6.860209 2.182955 -66.242821
v -6.860209 2.182955 -79.963234
v 6.860209 2.182955 -79.963234
v 6.860209 2.182955 -66.242821
v 6.860209 2.182955 -74.772881
v 6.860209 2.182955 -71.433174
v 5.877541 2.177593 -74.772881
v 5.877541 2.177593 -71.433174
v -4.553463 2.173115 -74.772881
v -4.553463 2.173115 -71.433174
v 1.694748 2.175697 -67.416489
v 1.694748 2.175697 -71.433174
v 0.097685 2.175011 -67.416489
v 1.694748 2.175697 -78.789566
v 0.097685 2.175011 -78.789566
v 1.694748 2.175697 -74.772881
v 0.097685 2.175011 -71.433174
v 0.097685 2.175011 -74.772881
v -6.570120 1.658131 -66.544327
v -6.570120 1.658131 -79.661728
v 6.547277 1.658300 -79.661728
v 6.547277 1.658300 -66.544327
v 6.547277 1.658300 -75.074394
v 6.547277 1.658300 -71.131660
v 5.866119 1.652853 -75.074394
v 5.866119 1.652853 -71.131660
v -4.866395 1.648460 -75.074394
v -4.866395 1.648460 -71.131660
v 1.984836 1.650873 -67.114975
v 1.984836 1.650873 -71.131660
v -0.215248 1.650356 -67.114975
v 1.984837 1.650873 -79.091080
v -0.215248 1.650356 -79.091080
v 1.984836 1.650873 -75.074394
v -0.215248 1.650356 -71.131660
v -0.215248 1.650356 -75.074394
vn -0.9319 0.3627 -0.0000
vn -0.0000 0.3627 -0.9319
vn -0.0000 -0.0000 1.0000
vn -0.0000 0.3627 0.9319
vn -0.0055 1.0000 -0.0000
vn -0.0000 -1.0000 -0.0000
vn 0.9319 0.3627 -0.0026
vn 0.9319 0.3627 0.0026
vn 0.9319 0.3627 -0.0000
vn 0.9102 0.4141 -0.0000
vn -0.0000 -0.0000 -1.0000
vn 0.9505 0.3108 -0.0000
vn -0.0004 1.0000 -0.0000
vn 0.9998 -0.0218 -0.0000
vn 1.0000 0.0033 -0.0000
vn -1.0000 -0.0033 -0.0000
vn 0.0003 1.0000 -0.0000
vn -0.0000 1.0000 -0.0000
vn -0.0065 1.0000 0.0034
vn -0.0065 1.0000 -0.0034
vn -0.0003 1.0000 -0.0000
vn -0.0005 1.0000 -0.0004
vn -0.0005 1.0000 0.0004
vn -0.0004 1.0000 -0.0007
vn -0.0004 1.0000 0.0007
vn 0.0004 1.0000 -0.0000
vn -0.9998 0.0218 -0.0000
vt 0.375000 0.000000
vt 0.625000 0.000000
vt 0.625000 0.250000
vt 0.375000 0.250000
vt 0.625000 0.500000
vt 0.375000 0.500000
vt 0.549651 0.595515
vt 0.625000 0.594573
vt 0.625000 0.594574
vt 0.375000 0.750000
vt 0.625000 0.750000
vt 0.625000 1.000000
vt 0.375000 1.000000
vt 0.450349 0.653244
vt 0.450349 0.596756
vt 0.125000 0.500000
vt 0.375000 0.597698
vt 0.375000 0.652302
vt 0.125000 0.750000
vt 0.549651 0.654485
vt 0.625000 0.655426
vt 0.549651 0.654485
vt 0.625000 0.655426
vt 0.632388 0.658635
vt 0.680875 0.707570
vt 0.868117 0.744366
vt 0.868117 0.505634
vt 0.875000 0.500000
vt 0.875000 0.750000
vt 0.630443 0.505746
vt 0.630443 0.744254
vt 0.628362 0.589171
vt 0.628362 0.660829
vt 0.630467 0.589245
vt 0.630467 0.660755
vt 0.721601 0.589406
vt 0.721601 0.660594
vt 0.705828 0.707359
vt 0.680875 0.542430
vt 0.705828 0.542641
vt 0.632388 0.591365
vt 0.635240 0.658623
vt 0.635240 0.591377
s 0
f 1/1/1 43/2/1 44/3/1 3/4/1
f 3/4/2 44/3/2 45/5/2 7/6/2
f 34/7/3 60/8/3 51/9/3 23/7/3
f 5/10/4 46/11/4 43/12/4 1/13/4
f 15/14/5 18/15/5 21/15/5 20/14/5
f 3/16/6 7/6/6 9/17/6 10/18/6 5/10/6 1/19/6
f 10/18/7 15/14/7 16/20/7 48/21/7 46/11/7 5/10/7
f 7/6/8 45/5/8 47/9/8 17/7/8 18/15/8 9/17/8
f 17/7/3 47/9/3 49/9/3 22/7/3
f 15/14/9 10/18/9 9/17/9 18/15/9
f 20/14/10 21/15/10 22/7/10 19/20/10
f 48/21/11 16/20/11 19/20/11 50/21/11
f 18/15/3 17/7/3 22/7/3 21/15/3
f 16/20/11 15/14/11 20/14/11 19/20/11
f 52/21/12 24/20/12 23/7/12 51/9/12
f 19/20/13 22/7/13 33/7/13 34/7/13 23/7/13 24/20/13 37/20/13 38/22/13
f 59/21/11 37/20/11 24/20/11 52/21/11
f 50/21/11 19/20/11 38/20/11 54/23/11
f 35/24/14 42/25/14 71/25/14 72/24/14
f 57/8/3 28/7/3 27/7/3 56/9/3
f 37/20/15 59/21/15 55/21/15 40/20/15
f 54/23/16 38/20/16 39/20/16 53/23/16
f 22/7/3 49/9/3 58/9/3 33/7/3
f 40/20/11 55/21/11 53/23/11 39/20/11
f 33/7/16 58/9/16 56/9/16 27/7/16
f 60/8/15 34/7/15 28/7/15 57/8/15
f 38/22/13 37/20/13 40/20/13 39/22/13
f 34/7/13 33/7/13 27/7/13 28/7/13
f 2/26/17 4/27/17 44/28/17 43/29/17
f 4/27/18 8/30/18 45/5/18 44/28/18
f 6/31/18 2/26/18 43/29/18 46/11/18
f 8/30/17 12/32/17 47/9/17 45/5/17
f 11/33/17 6/31/17 46/11/17 48/21/17
f 12/32/19 14/34/19 49/9/19 47/9/19
f 13/35/20 11/33/20 48/21/20 50/21/20
f 25/36/17 26/37/17 52/21/17 51/9/17
f 42/25/17 35/24/17 54/21/17 53/21/17
f 41/38/21 42/25/21 53/21/21 55/21/21
f 30/39/21 29/40/21 57/9/21 56/8/21
f 14/34/22 32/41/22 58/8/22 49/9/22
f 35/24/23 13/35/23 50/21/23 54/21/23
f 26/37/24 36/42/24 59/21/24 52/21/24
f 31/43/25 25/36/25 51/9/25 60/9/25
f 36/42/17 41/38/17 55/21/17 59/21/17
f 32/41/17 30/39/17 56/8/17 58/8/17
f 29/40/17 31/43/17 60/9/17 57/9/17
f 78/43/26 75/40/26 74/39/26 76/41/26 67/34/26 65/32/26 63/30/26 62/27/26 61/26/26 64/31/26 66/33/26 68/35/26 72/24/26 71/25/26 73/38/26 77/42/26 70/37/26 69/36/26
f 8/30/3 4/27/3 62/27/3 63/30/3
f 30/39/14 32/41/14 76/41/14 74/39/14
f 42/25/3 41/38/3 73/38/3 71/25/3
f 2/26/11 6/31/11 64/31/11 61/26/11
f 31/43/27 29/40/27 75/40/27 78/43/27
f 29/40/11 30/39/11 74/39/11 75/40/11
f 12/32/27 8/30/27 63/30/27 65/32/27
f 32/41/11 14/34/11 67/34/11 76/41/11
f 6/31/27 11/33/27 66/33/27 64/31/27
f 13/35/3 35/24/3 72/24/3 68/35/3
f 14/34/11 12/32/11 65/32/11 67/34/11
f 36/42/3 26/37/3 70/37/3 77/42/3
f 11/33/3 13/35/3 68/35/3 66/33/3
f 25/36/11 31/43/11 78/43/11 69/36/11
f 26/37/27 25/36/27 69/36/27 70/37/27
f 4/27/14 2/26/14 61/26/14 62/27/14
f 41/38/27 36/42/27 77/42/27 73/38/27
