# Blender 4.2.1 LTS
# www.blender.org
mtllib PillarDamaged3.mtl
o Cube.004
v -21.522110 3.082481 0.651720
v -20.730232 3.082481 1.443598
v -20.730232 -3.082481 1.443598
v -21.522110 -3.082481 0.651720
v -19.426792 -3.082481 -1.443598
v -18.634914 -3.082481 -0.651720
v -19.817602 0.680327 -0.160967
v -19.627056 -2.481737 -1.000000
v -19.078512 -2.481737 -0.451455
v -19.078512 -2.481737 0.451455
v -19.627056 -2.481737 1.000000
v -20.529968 2.481737 -1.000000
v -21.078512 2.481737 -0.451455
v -21.078512 -2.481737 -0.451455
v -20.529968 -2.481737 -1.000000
v -21.078512 2.481737 0.451455
v -20.529968 2.481737 1.000000
v -20.529968 -2.481737 1.000000
v -21.078512 -2.481737 0.451455
v -20.566910 3.368569 -0.160967
v -19.817602 0.680327 0.754186
v -19.426792 -3.082481 1.443598
v -18.634914 -3.082481 0.651720
v -21.522110 3.082481 -0.651720
v -20.730232 3.082481 -1.443598
v -20.730232 -3.082481 -1.443598
v -21.522110 -3.082481 -0.651720
v -19.175739 -3.082481 -1.192545
v -18.885967 -3.082481 -0.902772
v -20.283413 -3.082481 -1.443598
v -19.873611 -3.082481 -1.443598
v -20.981285 3.082481 -1.192545
v -21.271057 3.082481 -0.902772
v -21.271057 3.082481 0.902772
v -20.981285 3.082481 1.192545
v -18.885967 -3.082481 0.902772
v -19.175739 -3.082481 1.192545
v -18.634914 -3.082481 -0.204900
v -18.634914 -3.082481 0.204900
v -20.981285 -3.082481 1.192545
v -21.271057 -3.082481 0.902772
v -21.271057 -3.082481 -0.902772
v -20.981285 -3.082481 -1.192545
v -19.497671 -2.481737 -0.870614
v -19.207897 -2.481737 -0.580841
v -20.659353 -2.481737 0.870614
v -20.949127 -2.481737 0.580841
v -20.949127 2.481737 0.580841
v -20.659353 2.481737 0.870614
v -19.207897 -2.481737 0.580841
v -19.497671 -2.481737 0.870614
v -20.659353 2.481737 -0.870614
v -20.949127 2.481737 -0.580841
v -20.566910 3.368569 -1.076119
v -20.949127 -2.481737 -0.580841
v -20.566910 3.368569 0.754186
v -20.659353 -2.481737 -0.870614
v -20.376080 1.973210 -0.160967
v -19.873611 -2.481737 -1.000000
v -20.283413 -2.481737 -1.000000
v -20.376080 1.973210 0.754186
v -19.078512 -2.481737 -0.204900
v -19.078512 -2.481737 0.204900
v -21.078512 2.481737 -0.204900
v -21.078512 2.481737 0.204900
v -21.078512 -2.481737 0.204900
v -21.078512 -2.481737 -0.204900
v -19.873611 -2.481737 1.000000
v -20.283413 -2.481737 1.000000
v -21.522110 3.082481 -0.204900
v -21.522110 3.082481 0.204900
v -21.522110 -3.082481 0.204900
v -21.522110 -3.082481 -0.204900
v -19.873611 -3.082481 1.443598
v -20.283413 -3.082481 1.443598
v -20.824001 -2.565521 0.204900
v -20.824001 -2.565521 -0.204900
v -21.306561 -2.926971 -0.204900
v -21.306561 -2.926971 0.204900
v -20.769533 -2.567106 -0.401248
v -20.479759 -2.567106 -0.691021
v -20.830282 -2.929387 -1.041543
v -21.120056 -2.929387 -0.751770
v -20.769533 2.567106 0.401248
v -20.479759 2.567106 0.691021
v -20.830282 2.929387 1.041543
v -21.120056 2.929387 0.751770
v -20.824001 2.565521 -0.204900
v -20.824001 2.565521 0.204900
v -21.306561 2.926972 0.204900
v -21.306561 2.926972 -0.204900
v -20.479759 2.567106 -0.691021
v -20.769533 2.567106 -0.401248
v -21.120056 2.929387 -0.751770
v -20.830282 2.929387 -1.041543
v -20.479759 -2.567106 0.691021
v -20.769533 -2.567106 0.401248
v -21.120056 -2.929387 0.751770
v -20.830282 -2.929387 1.041543
v -19.333023 -2.565521 -0.204900
v -19.333023 -2.565521 0.204900
v -18.850464 -2.926971 0.204900
v -18.850464 -2.926971 -0.204900
v -19.387491 -2.567106 0.401248
v -19.677265 -2.567106 0.691021
v -19.326742 -2.929387 1.041543
v -19.036968 -2.929387 0.751770
v -19.677265 -2.567106 -0.691021
v -19.387491 -2.567106 -0.401248
v -19.036968 -2.929387 -0.751770
v -19.326742 -2.929387 -1.041543
v -19.873611 -2.565521 -0.745490
v -20.283413 -2.565521 -0.745490
v -19.873611 -2.565521 0.745490
v -20.283413 -2.565521 0.745490
v -20.283413 -2.926971 1.228048
v -19.873611 -2.926971 1.228048
v -19.873611 -2.926971 -1.228048
v -20.283413 -2.926971 -1.228048
v -19.426792 -3.534341 -1.443598
v -21.522110 -3.534341 -0.651720
v -20.730232 -3.534341 -1.443598
v -18.634914 -3.534341 -0.651720
v -18.634914 -3.534341 0.651720
v -19.426792 -3.534341 1.443598
v -20.730232 -3.534341 1.443598
v -21.522110 -3.534341 0.651720
v -20.730232 3.534341 -1.443598
v -21.522110 3.534341 -0.651720
v -21.522110 3.534341 0.651720
v -20.730232 3.534341 1.443598
v -20.445625 2.481737 1.000000
v -20.527784 3.082481 1.443598
v -19.627056 0.795498 1.000000
v -19.497671 0.873703 0.870614
v -20.376080 1.973210 -1.000000
v -20.445625 2.481737 -1.000000
v -20.283413 1.758686 -1.000000
v -19.078512 1.127055 -0.451455
v -19.078512 1.127055 -0.204900
v -20.376080 1.973210 1.000000
v -20.283413 1.758686 1.000000
v -19.207897 1.048850 -0.580841
v -19.817602 0.680327 1.000000
v -19.873611 0.809989 1.000000
v -20.459723 2.584821 -1.076119
v -20.527784 3.082481 -1.443598
v -19.817602 0.680327 -1.000000
v -19.873611 0.809989 -1.000000
v -19.627056 0.795498 -1.000000
v -19.207897 1.048850 0.580841
v -19.078512 1.127055 0.451455
v -19.497671 0.873703 -0.870614
v -19.078512 1.127055 0.204900
v -19.387491 0.940299 0.401248
v -20.283413 1.758686 -0.745490
v -19.873611 0.809989 -0.745490
v -19.677265 0.765152 0.691021
v -19.677265 0.765152 -0.691021
v -19.387491 0.940299 -0.401248
v -19.333023 0.973221 0.204900
v -19.333023 0.973221 -0.160967
v -19.333023 0.973221 -0.204900
v -20.283413 1.758686 0.745490
v -19.873611 0.809989 0.745490
v -19.614100 0.803330 0.754186
v -20.283413 1.758686 0.754186
v -19.873611 0.809989 0.754186
v -20.544237 3.534341 -1.076119
v -20.544237 3.534341 -1.443598
v -20.544237 3.534341 1.443598
v -20.544237 3.534341 0.754186
v -20.544237 3.534341 -0.160967
v -20.566910 3.368569 -1.443598
v -20.566910 3.368569 1.443598
vn -0.8045 -0.5940 -0.0000
vn 0.5636 0.6040 -0.5636
vn -0.0000 -0.5940 0.8045
vn -0.0000 0.5940 0.8045
vn -1.0000 -0.0000 -0.0000
vn -0.7071 -0.0000 0.7071
vn 0.7071 -0.0000 0.7071
vn -0.7071 -0.0000 -0.7071
vn -0.0000 -0.0000 -1.0000
vn 1.0000 -0.0000 -0.0000
vn -0.0000 0.5940 -0.8045
vn -0.5636 0.6040 -0.5636
vn 0.8045 0.5940 -0.0000
vn -0.5636 -0.6040 0.5636
vn 0.5636 0.6040 0.5636
vn -0.0000 -0.0000 1.0000
vn 0.7071 -0.0000 -0.7071
vn -0.8045 0.5940 -0.0000
vn -0.5636 -0.6040 -0.5636
vn -0.5636 0.6040 0.5636
vn -0.0000 -0.5940 -0.8045
vn -0.4120 -0.8127 -0.4120
vn 0.4120 0.8127 -0.4120
vn -0.5851 -0.8110 -0.0000
vn -0.5995 0.8004 -0.0000
vn -0.4172 0.8074 -0.4172
vn -0.4172 -0.8074 0.4172
vn -0.5995 -0.8004 -0.0000
vn -0.4172 -0.8074 -0.4172
vn -0.4172 0.8074 0.4172
vn 0.5995 0.8004 -0.0000
vn 0.4172 0.8074 0.4172
vn 0.4172 0.8074 -0.4172
vn -0.0000 0.8004 0.5995
vn -0.0000 0.8004 -0.5995
vn -0.5851 0.8110 -0.0000
vn -0.4120 0.8127 0.4120
vn -0.4120 0.8127 -0.4120
vn 0.5851 0.8110 -0.0000
vn -0.0000 0.8110 0.5851
vn 0.4120 0.8127 0.4120
vn -0.4120 -0.8127 0.4120
vn -0.0000 0.8110 -0.5851
vn -0.0000 1.0000 -0.0000
vn -0.0000 -1.0000 -0.0000
vn 0.9908 0.1355 -0.0000
vn 0.9908 -0.1355 -0.0000
vn 0.9180 0.3965 -0.0000
vn -0.5173 0.8558 -0.0000
vt 0.625000 0.181432
vt 0.625000 0.150613
vt 0.625000 0.142742
vt 0.375000 0.536222
vt 0.375000 0.568568
vt 0.375000 0.525091
vt 0.625000 0.913902
vt 0.625000 0.931432
vt 0.625000 0.920889
vt 0.375000 0.818568
vt 0.375000 0.849387
vt 0.375000 0.857258
vt 0.375000 0.068568
vt 0.625000 0.068568
vt 0.625000 0.099387
vt 0.375000 0.099387
vt 0.375000 0.000000
vt 0.625000 0.000000
vt 0.625000 0.016173
vt 0.375000 0.016173
vt 0.540068 0.818568
vt 0.375000 0.786222
vt 0.544007 0.786222
vt 0.625000 0.318568
vt 0.375000 0.318568
vt 0.375000 0.286222
vt 0.625000 0.286222
vt 0.375000 0.349387
vt 0.625000 0.329111
vt 0.599387 0.337804
vt 0.588581 0.349387
vt 0.556767 0.599387
vt 0.375000 0.599387
vt 0.556767 0.568568
vt 0.375000 0.357258
vt 0.375000 0.181432
vt 0.375000 0.213778
vt 0.375000 0.224909
vt 0.375000 0.607258
vt 0.625000 0.052395
vt 0.625000 0.046830
vt 0.375000 0.150613
vt 0.375000 0.681432
vt 0.375000 0.713778
vt 0.375000 0.724909
vt 0.375000 0.931432
vt 0.375000 0.900613
vt 0.588581 0.900613
vt 0.599387 0.912196
vt 0.552828 0.536222
vt 0.375000 0.107258
vt 0.625000 0.275091
vt 0.375000 0.021738
vt 0.375000 0.892742
vt 0.375000 0.275091
vt 0.375000 0.142742
vt 0.625000 0.021738
vt 0.540797 0.849388
vt 0.534267 0.842386
vt 0.625000 0.213778
vt 0.625000 0.224909
vt 0.375000 0.052395
vt 0.375000 0.046830
vt 0.375000 0.650613
vt 0.375000 0.642742
vt 0.375000 0.775091
vt 0.625000 0.336098
vt 0.625000 0.330349
vt 0.375000 0.431432
vt 0.375000 0.400613
vt 0.540797 0.400613
vt 0.534267 0.407614
vt 0.540068 0.431432
vt 0.552828 0.713778
vt 0.556767 0.681432
vt 0.375000 0.463778
vt 0.544007 0.463778
vt 0.556767 0.650613
vt 0.625000 0.107258
vt 0.375000 0.392742
vt 0.545786 0.713778
vt 0.585689 0.349387
vt 0.853262 0.546830
vt 0.828170 0.521738
vt 0.539465 0.400613
vt 0.375000 0.474909
vt 0.353262 0.546830
vt 0.328170 0.521738
vt 0.875000 0.642742
vt 0.875000 0.607258
vt 0.625000 0.016173
vt 0.375000 0.016173
vt 0.537257 0.786222
vt 0.537257 0.463778
vt 0.545786 0.536222
vt 0.547418 0.650613
vt 0.547418 0.599387
vt 0.547418 0.604879
vt 0.585689 0.900613
vt 0.539465 0.849387
vt 0.539589 0.786222
vt 0.125000 0.607258
vt 0.125000 0.642742
vt 0.146738 0.703170
vt 0.171830 0.728262
vt 0.171830 0.521738
vt 0.146738 0.546830
vt 0.232258 0.750000
vt 0.267742 0.750000
vt 0.328170 0.728262
vt 0.353262 0.703170
vt 0.585786 0.900613
vt 0.539510 0.849387
vt 0.828170 0.728262
vt 0.853262 0.703170
vt 0.267742 0.500000
vt 0.232258 0.500000
vt 0.790327 0.500000
vt 0.806432 0.500000
vt 0.875000 0.568568
vt 0.875000 0.681432
vt 0.806432 0.750000
vt 0.790327 0.750000
vt 0.790327 0.690304
vt 0.790327 0.611062
vt 0.790327 0.531820
vt 0.125000 0.681432
vt 0.125000 0.568568
vt 0.193568 0.500000
vt 0.306432 0.500000
vt 0.306432 0.750000
vt 0.193568 0.750000
vt 0.626551 0.334261
vt 0.625000 0.334673
vt 0.689675 0.849227
vt 0.638450 0.903840
vt 0.625000 0.915327
vt 0.487186 0.212597
vt 0.500000 0.212597
vt 0.500000 0.187500
vt 0.464895 0.187500
vt 0.437500 0.062500
vt 0.437500 0.125000
vt 0.500000 0.125000
vt 0.500000 0.062500
vt 0.507425 0.062500
vt 0.507425 0.125000
vt 0.507425 0.015417
vt 0.500000 0.015417
vt 0.381268 0.062500
vt 0.375000 0.062500
vt 0.375000 0.125000
vt 0.427130 0.062500
vt 0.427130 0.063094
vt 0.381268 0.063094
vt 0.381268 0.045712
vt 0.375000 0.045712
vt 0.437500 0.045712
vt 0.427130 0.045712
vt 0.460278 0.045712
vt 0.487186 0.015417
vt 0.427130 0.182301
vt 0.437500 0.182301
vt 0.375000 0.182301
vt 0.381268 0.182301
vt 0.381268 0.164920
vt 0.427130 0.164920
vt 0.460278 0.182301
vt 0.140206 0.567698
vt 0.125000 0.567699
vt 0.125000 0.625000
vt 0.163670 0.625000
vt 0.163670 0.622000
vt 0.183980 0.622000
vt 0.183980 0.605161
vt 0.173655 0.596325
vt 0.159323 0.608590
vt 0.136199 0.588800
vt 0.150531 0.576535
vt 0.140206 0.704288
vt 0.150531 0.695451
vt 0.141240 0.687500
vt 0.125000 0.687500
vt 0.125000 0.704288
vt 0.173655 0.675662
vt 0.183980 0.666825
vt 0.183980 0.649987
vt 0.163670 0.649987
vt 0.136199 0.683186
vt 0.159323 0.663396
vt 0.507425 0.187500
vt 0.507425 0.212597
s 0
usemtl Material.004
f 13/1/1 64/2/1 70/3/1 24/1/1
f 45/4/2 9/5/2 6/5/2 29/6/2
f 133/7/3 2/8/3 17/8/3 132/9/3
f 11/10/4 68/11/4 74/12/4 22/10/4
f 19/13/5 16/14/5 65/15/5 66/16/5
f 18/17/6 17/18/6 49/19/6 46/20/6
f 134/21/7 11/10/7 51/22/7 135/23/7
f 12/24/8 15/25/8 57/26/8 52/27/8
f 60/28/9 15/25/9 12/24/9 137/29/9 136/30/9 138/31/9
f 140/32/10 62/33/10 9/5/10 139/34/10
f 15/25/11 60/28/11 30/35/11 26/25/11
f 14/36/12 55/37/12 42/38/12 27/36/12
f 9/5/13 62/33/13 38/39/13 6/5/13
f 16/14/14 48/40/14 34/41/14 1/14/14
f 67/42/5 64/2/5 13/1/5 14/36/5
f 10/43/15 50/44/15 36/45/15 23/43/15
f 132/9/16 17/8/16 18/46/16 69/47/16 142/48/16 141/49/16
f 9/5/17 45/4/17 143/50/17 139/34/17
f 19/13/18 66/16/18 72/51/18 4/13/18
f 12/24/19 52/27/19 32/52/19 25/24/19
f 18/17/20 46/20/20 40/53/20 3/17/20
f 69/47/4 18/46/4 3/46/4 75/54/4
f 57/26/12 15/25/12 26/25/12 43/55/12
f 67/42/18 14/36/18 27/36/18 73/56/18
f 49/19/14 17/18/14 2/18/14 35/57/14
f 145/58/16 68/11/16 11/10/16 134/21/16 144/59/16
f 53/60/19 13/1/19 24/1/19 33/61/19
f 47/62/20 19/13/20 4/13/20 41/63/20
f 63/64/13 10/43/13 23/43/13 39/65/13
f 51/22/15 11/10/15 22/10/15 37/66/15
f 137/29/21 12/24/21 25/24/21 147/67/21 146/68/21
f 8/69/9 59/70/9 149/71/9 148/72/9 150/73/9
f 53/60/8 55/37/8 14/36/8 13/1/8
f 151/74/7 50/44/7 10/43/7 152/75/7
f 47/62/6 48/40/6 16/14/6 19/13/6
f 44/76/17 8/69/17 150/73/17 153/77/17
f 152/75/10 10/43/10 63/64/10 154/78/10
f 65/15/1 16/14/1 1/14/1 71/79/1
f 59/70/11 8/69/11 5/69/11 31/80/11
f 67/42/16 73/56/16 78/56/16 77/42/16
f 155/81/6 104/44/6 50/44/6 151/74/6
f 52/27/6 57/26/6 81/26/6 92/27/6
f 55/37/17 53/60/17 93/60/17 80/37/17
f 156/82/10 113/28/10 60/28/10 138/31/10
f 32/52/6 52/27/6 92/27/6 95/52/6
f 33/83/22 32/84/22 95/84/22 94/83/22
f 59/70/5 112/70/5 157/85/5 149/71/5
f 53/60/17 33/61/17 94/61/17 93/60/17
f 28/86/7 44/76/7 108/76/7 111/86/7
f 29/87/23 28/88/23 111/88/23 110/87/23
f 70/3/16 64/2/16 88/2/16 91/3/16
f 45/4/8 29/6/8 110/6/8 109/4/8
f 30/35/10 60/28/10 113/28/10 119/35/10
f 71/89/24 70/90/24 91/90/24 90/89/24
f 8/69/2 44/76/2 28/86/2 5/69/2
f 77/42/25 78/56/25 79/51/25 76/16/25
f 81/26/26 82/55/26 83/38/26 80/37/26
f 85/91/27 86/57/27 87/41/27 84/40/27
f 89/15/28 90/79/28 91/3/28 88/2/28
f 93/60/29 94/61/29 95/52/29 92/27/29
f 97/62/30 98/63/30 99/53/30 96/92/30
f 101/64/31 102/65/31 103/39/31 100/33/31
f 105/22/32 106/66/32 107/45/32 104/44/32
f 109/4/33 110/6/33 111/86/33 108/76/33
f 112/70/9 113/28/9 156/82/9 157/85/9
f 80/37/8 93/60/8 92/27/8 81/26/8
f 105/22/7 104/44/7 155/81/7 158/93/7
f 84/40/6 97/62/6 96/92/6 85/91/6
f 109/4/17 108/76/17 159/94/17 160/95/17
f 161/96/10 101/64/10 100/33/10 163/97/10 162/98/10
f 115/47/34 116/54/34 117/12/34 114/11/34
f 164/99/16 115/47/16 114/11/16 165/100/16
f 88/2/5 77/42/5 76/16/5 89/15/5
f 112/70/35 118/80/35 119/35/35 113/28/35
f 51/22/17 105/22/17 158/93/17 166/101/17 135/23/17
f 73/102/36 72/103/36 79/103/36 78/102/36
f 48/40/7 47/62/7 97/62/7 84/40/7
f 47/62/7 41/63/7 98/63/7 97/62/7
f 72/51/9 66/16/9 76/16/9 79/51/9
f 46/20/8 49/19/8 85/91/8 96/92/8
f 41/104/37 40/105/37 99/105/37 98/104/37
f 108/76/7 44/76/7 153/77/7 159/94/7
f 40/53/8 46/20/8 96/92/8 99/53/8
f 57/26/6 43/55/6 82/55/6 81/26/6
f 45/4/8 109/4/8 160/95/8 143/50/8
f 43/106/38 42/107/38 83/107/38 82/106/38
f 63/64/9 101/64/9 161/96/9 154/78/9
f 63/64/9 39/65/9 102/65/9 101/64/9
f 42/38/17 55/37/17 80/37/17 83/38/17
f 163/97/16 100/33/16 62/33/16 140/32/16
f 39/65/39 38/39/39 103/39/39 102/65/39
f 38/39/16 62/33/16 100/33/16 103/39/16
f 69/47/10 75/54/10 116/54/10 115/47/10
f 75/108/40 74/109/40 117/109/40 116/108/40
f 51/22/17 37/66/17 106/66/17 105/22/17
f 74/12/5 68/11/5 114/11/5 117/12/5
f 37/110/41 36/111/41 107/111/41 106/110/41
f 142/48/10 69/47/10 115/47/10 164/99/10 167/112/10
f 36/45/6 50/44/6 104/44/6 107/45/6
f 49/19/8 35/57/8 86/57/8 85/91/8
f 114/11/5 68/11/5 145/58/5 168/113/5 165/100/5
f 35/114/42 34/115/42 87/115/42 86/114/42
f 64/2/16 67/42/16 77/42/16 88/2/16
f 34/41/7 48/40/7 84/40/7 87/41/7
f 66/16/9 65/15/9 89/15/9 76/16/9
f 59/70/5 31/80/5 118/80/5 112/70/5
f 65/15/9 71/79/9 90/79/9 89/15/9
f 31/116/43 30/117/43 119/117/43 118/116/43
f 170/118/44 128/119/44 129/120/44 130/121/44 131/122/44 171/123/44 172/124/44 173/125/44 169/126/44
f 127/127/45 121/128/45 122/129/45 120/130/45 123/5/45 124/43/45 125/131/45 126/132/45
f 124/43/10 123/5/10 6/5/10 38/39/10 39/65/10 23/43/10
f 131/18/6 130/14/6 1/14/6 34/115/6 35/57/6 2/18/6
f 174/133/9 147/67/9 25/24/9 128/24/9 170/134/9
f 121/36/5 127/13/5 4/13/5 72/103/5 73/56/5 27/36/5
f 120/69/9 122/25/9 26/25/9 30/117/9 31/80/9 5/69/9
f 127/13/6 126/17/6 3/17/6 40/105/6 41/63/6 4/13/6
f 126/46/16 125/10/16 22/10/16 74/109/16 75/54/16 3/46/16
f 130/14/5 129/1/5 24/1/5 70/90/5 71/79/5 1/14/5
f 123/5/17 120/69/17 5/69/17 28/88/17 29/6/17 6/5/17
f 122/25/8 121/36/8 27/36/8 42/107/8 43/55/8 26/25/8
f 131/8/16 2/8/16 133/135/16 175/136/16 171/137/16
f 125/10/7 124/43/7 23/43/7 36/111/7 37/66/7 22/10/7
f 129/1/8 128/24/8 25/24/8 32/84/8 33/61/8 24/1/8
f 147/138/46 174/139/46 54/140/46 146/141/46
f 61/142/46 58/143/46 20/144/46 56/145/46
f 172/146/47 56/145/47 20/144/47 173/147/47
f 56/145/47 172/146/47 171/148/47 175/149/47
f 168/150/48 21/151/48 7/152/48 58/143/48 61/142/48 167/153/48 164/154/48 165/155/48
f 145/156/48 144/157/48 21/151/48 168/150/48
f 167/153/48 61/142/48 141/158/48 142/159/48
f 132/160/46 141/158/46 61/142/46 56/145/46 175/149/46 133/161/46
f 138/162/48 136/163/48 58/143/48 7/152/48 148/164/48 149/165/48 157/166/48 156/167/48
f 146/141/46 54/140/46 20/144/46 58/143/46 136/163/46 137/168/46
f 150/169/49 148/170/49 7/171/49 162/172/49 163/173/49 140/174/49 139/175/49 143/176/49 160/177/49 159/178/49 153/179/49
f 134/180/49 135/181/49 166/182/49 21/183/49 144/184/49
f 151/185/49 152/186/49 154/187/49 161/188/49 162/172/49 7/171/49 21/183/49 166/182/49 158/189/49 155/190/49
f 169/191/47 54/140/47 174/139/47 170/192/47
f 173/147/47 20/144/47 54/140/47 169/191/47
