# Blender 4.2.1 LTS
# www.blender.org
mtllib PillarDamaged4.mtl
o Cube.005
v -2.126861 -3.082481 4.134870
v -1.334983 -3.082481 4.926748
v -3.430300 -3.082481 7.022066
v -4.222178 -3.082481 6.230188
v -3.230036 -2.481737 6.578468
v -3.778581 -2.481737 6.029923
v -3.778581 -2.481737 5.127013
v -3.230036 -2.481737 4.578468
v -1.778581 -2.481737 6.029923
v -2.327125 -2.481737 6.578468
v -2.327126 -2.481737 4.578468
v -1.778581 -2.481737 5.127013
v -3.430300 -3.082481 4.134870
v -4.222178 -3.082481 4.926748
v -2.126861 -3.082481 7.022066
v -1.334983 -3.082481 6.230187
v -3.681353 -3.082481 6.771013
v -3.971126 -3.082481 6.481240
v -2.573680 -3.082481 7.022066
v -2.983481 -3.082481 7.022066
v -3.971126 -3.082481 4.675696
v -3.681353 -3.082481 4.385923
v -4.222178 -3.082481 5.783369
v -4.222178 -3.082481 5.373568
v -1.875808 -3.082481 4.385922
v -1.586035 -3.082481 4.675695
v -1.586035 -3.082481 6.481240
v -1.875808 -3.082481 6.771013
v -3.359422 -2.481737 6.449082
v -3.649195 -2.481737 6.159309
v -2.197740 -2.481737 4.707854
v -1.907967 -2.481737 4.997627
v -3.649195 -2.481737 4.997627
v -3.359422 -2.481737 4.707854
v -1.907967 -2.481737 6.159309
v -2.197739 -2.481737 6.449082
v -2.983481 -2.481737 6.578468
v -2.573680 -2.481737 6.578468
v -3.778581 -2.481737 5.783369
v -3.778581 -2.481737 5.373568
v -1.778581 -2.481737 5.373567
v -1.778581 -2.481737 5.783368
v -2.983481 -2.481737 4.578468
v -2.573680 -2.481737 4.578468
v -1.334983 -3.082481 5.373567
v -1.334983 -3.082481 5.783368
v -2.983481 -3.082481 4.134870
v -2.573680 -3.082481 4.134870
v -2.033091 -2.565521 5.373568
v -2.033091 -2.565521 5.783368
v -1.550533 -2.926971 5.783368
v -1.550533 -2.926971 5.373567
v -2.087560 -2.567106 5.979716
v -2.377333 -2.567106 6.269489
v -2.026810 -2.929387 6.620011
v -1.737037 -2.929387 6.330238
v -2.377333 -2.567106 4.887447
v -2.087560 -2.567106 5.177220
v -1.737037 -2.929387 4.826697
v -2.026810 -2.929387 4.536924
v -3.524070 -2.565521 5.783368
v -3.524070 -2.565521 5.373568
v -4.006629 -2.926971 5.373568
v -4.006629 -2.926971 5.783369
v -3.469602 -2.567106 5.177220
v -3.179829 -2.567106 4.887447
v -3.530351 -2.929387 4.536924
v -3.820124 -2.929387 4.826698
v -3.179828 -2.567106 6.269489
v -3.469601 -2.567106 5.979716
v -3.820124 -2.929387 6.330238
v -3.530351 -2.929387 6.620011
v -2.983481 -2.565521 6.323957
v -2.573680 -2.565521 6.323957
v -2.983481 -2.565521 4.832978
v -2.573680 -2.565521 4.832978
v -2.573680 -2.926971 4.350420
v -2.983481 -2.926971 4.350420
v -2.983481 -2.926971 6.806516
v -2.573680 -2.926971 6.806516
v -3.430300 -3.534341 7.022066
v -1.334983 -3.534341 6.230187
v -2.126861 -3.534341 7.022066
v -4.222178 -3.534341 6.230188
v -4.222178 -3.534341 4.926748
v -3.430300 -3.534341 4.134870
v -2.126861 -3.534341 4.134870
v -1.334983 -3.534341 4.926748
v -3.575587 1.422990 5.368865
v -3.101956 1.282253 5.350068
v -3.073377 1.321376 6.129660
v -2.609396 1.234732 5.343721
v -2.609396 1.276612 6.123681
v -2.116836 1.282253 5.350068
v -1.778581 1.399149 5.127013
v -1.778581 1.382764 5.363492
v -1.778581 1.383378 5.373567
v -2.327126 1.317124 4.578468
v -2.197740 1.320444 4.707854
v -3.230036 1.374126 4.578468
v -3.359422 1.403963 4.707854
v -2.327125 1.389712 6.578468
v -2.197739 1.377252 6.449082
v -2.573680 1.366530 6.578468
v -3.778581 1.579134 6.029923
v -3.778581 1.560129 5.783369
v -1.778581 1.408371 5.783368
v -1.778581 1.423408 6.029923
v -2.573680 1.293109 4.578468
v -3.651882 1.523245 6.156622
v -3.649195 1.522499 6.159309
v -3.111291 1.338515 4.578468
v -2.983481 1.326066 4.578468
v -3.044910 1.404121 6.578468
v -2.983481 1.398345 6.578468
v -3.230036 1.457641 6.578468
v -1.888513 1.397713 6.139855
v -1.907967 1.396032 6.159309
v -3.649195 1.485569 4.997627
v -3.778581 1.545628 5.127013
v -1.907967 1.369312 4.997627
v -3.359422 1.468819 6.449082
v -3.778581 1.529880 5.373568
v -3.582826 1.446284 5.063996
v -3.469602 1.404484 5.177220
v -2.377333 1.326183 6.269489
v -1.929028 1.385674 6.138247
v -2.087560 1.329282 5.979716
v -2.573680 1.318089 6.323957
v -2.983481 1.349904 6.323957
v -2.609396 1.314731 6.323957
v -2.236332 1.312604 6.128488
v -2.141910 1.316579 6.034066
v -3.179829 1.337661 4.887447
v -2.114419 1.296815 5.150361
v -2.087560 1.303009 5.177220
v -2.377333 1.290068 4.887447
v -3.310257 1.391763 6.139060
v -3.179828 1.380494 6.269489
v -3.469601 1.429008 5.979716
v -3.524070 1.408093 5.373568
v -3.524070 1.433086 5.783368
v -2.609396 1.271372 4.832978
v -2.573680 1.274850 4.832978
v -2.983481 1.307808 4.832978
v -2.033091 1.333361 5.783368
v -2.033091 1.308368 5.373568
v -3.646103 1.520220 6.156218
v -3.527436 1.449580 6.037550
v -3.575248 1.423177 5.373568
v -3.642824 1.458194 5.373568
v -3.545739 1.439473 5.783368
vn -0.5636 0.6040 0.5636
vn -0.0000 0.5940 -0.8045
vn 1.0000 -0.0000 -0.0000
vn 0.7071 -0.0000 -0.7071
vn -0.7071 -0.0000 -0.7071
vn 0.7071 -0.0000 0.7071
vn -0.0000 -0.0000 1.0000
vn -1.0000 -0.0000 -0.0000
vn -0.0000 0.5940 0.8045
vn 0.5636 0.6040 0.5636
vn -0.8045 0.5940 -0.0000
vn -0.5636 0.6040 -0.5636
vn -0.0000 -0.0000 -1.0000
vn -0.7071 -0.0000 0.7071
vn 0.8045 0.5940 -0.0000
vn 0.5636 0.6040 -0.5636
vn -0.4120 0.8127 0.4120
vn 0.5995 0.8004 -0.0000
vn 0.4172 0.8074 0.4172
vn 0.4172 0.8074 -0.4172
vn -0.5995 0.8004 -0.0000
vn -0.4172 0.8074 -0.4172
vn -0.4172 0.8074 0.4172
vn -0.0000 0.8004 -0.5995
vn -0.0000 0.8004 0.5995
vn 0.5851 0.8110 -0.0000
vn 0.4120 0.8127 -0.4120
vn 0.4120 0.8127 0.4120
vn -0.5851 0.8110 -0.0000
vn -0.0000 0.8110 -0.5851
vn -0.4120 0.8127 -0.4120
vn -0.0000 0.8110 0.5851
vn -0.0000 -1.0000 -0.0000
vn 0.4662 0.8829 0.0564
vn 0.4590 0.8858 -0.0683
vn 0.4434 0.8736 -0.2008
vn 0.2866 0.9558 0.0662
vn 0.2822 0.9576 -0.0584
vn 0.2726 0.9429 -0.1911
vn 0.0967 0.9928 0.0712
vn 0.0952 0.9940 -0.0534
vn 0.0920 0.9782 -0.1862
vn -0.0967 0.9928 0.0712
vn -0.0952 0.9940 -0.0534
vn -0.0920 0.9782 -0.1862
vn -0.2866 0.9558 0.0662
vn -0.2822 0.9576 -0.0584
vn -0.2726 0.9429 -0.1911
vt 0.375000 0.536222
vt 0.375000 0.568568
vt 0.375000 0.525091
vt 0.375000 0.818568
vt 0.375000 0.849387
vt 0.375000 0.857258
vt 0.375000 0.099387
vt 0.375000 0.068568
vt 0.570472 0.068568
vt 0.569647 0.098128
vt 0.569678 0.099387
vt 0.566508 0.016173
vt 0.375000 0.016173
vt 0.375000 0.000000
vt 0.566341 0.000000
vt 0.569212 0.818568
vt 0.375000 0.786222
vt 0.570715 0.786222
vt 0.375000 0.318568
vt 0.375000 0.286222
vt 0.569369 0.286222
vt 0.569997 0.318568
vt 0.375000 0.349387
vt 0.568829 0.349387
vt 0.578580 0.599387
vt 0.375000 0.599387
vt 0.579538 0.568568
vt 0.375000 0.357258
vt 0.375000 0.181432
vt 0.375000 0.213778
vt 0.375000 0.224909
vt 0.375000 0.607258
vt 0.375000 0.150613
vt 0.570937 0.150613
vt 0.571694 0.181432
vt 0.375000 0.681432
vt 0.375000 0.713778
vt 0.375000 0.724909
vt 0.566341 0.931432
vt 0.375000 0.931432
vt 0.375000 0.900613
vt 0.565131 0.900613
vt 0.576685 0.536222
vt 0.576723 0.536893
vt 0.375000 0.107258
vt 0.375000 0.021738
vt 0.375000 0.892742
vt 0.375000 0.275091
vt 0.375000 0.142742
vt 0.566791 0.849387
vt 0.567418 0.833411
vt 0.375000 0.052395
vt 0.375000 0.046830
vt 0.375000 0.650613
vt 0.375000 0.642742
vt 0.375000 0.775091
vt 0.375000 0.431432
vt 0.375000 0.400613
vt 0.570432 0.400613
vt 0.570723 0.408291
vt 0.573418 0.431432
vt 0.570400 0.208915
vt 0.570315 0.213778
vt 0.574825 0.713778
vt 0.577850 0.681432
vt 0.568969 0.052395
vt 0.375000 0.463778
vt 0.573981 0.463778
vt 0.577057 0.650613
vt 0.375000 0.392742
vt 0.568388 0.713778
vt 0.571952 0.713778
vt 0.564576 0.286222
vt 0.569523 0.213778
vt 0.564727 0.213778
vt 0.564221 0.349387
vt 0.565771 0.400613
vt 0.375000 0.474909
vt 0.353262 0.546830
vt 0.328170 0.521738
vt 0.375000 0.016173
vt 0.564058 0.353852
vt 0.564108 0.227366
vt 0.563915 0.250971
vt 0.565135 0.786222
vt 0.563447 0.052395
vt 0.562817 0.016173
vt 0.563146 0.049037
vt 0.567220 0.463778
vt 0.567769 0.496385
vt 0.569583 0.536222
vt 0.568607 0.650613
vt 0.569824 0.599387
vt 0.562115 0.900613
vt 0.563720 0.849387
vt 0.561945 0.896148
vt 0.563748 0.099387
vt 0.564965 0.150613
vt 0.125000 0.607258
vt 0.125000 0.642742
vt 0.146738 0.703170
vt 0.171830 0.728262
vt 0.571365 0.536222
vt 0.576527 0.536222
vt 0.171830 0.521738
vt 0.146738 0.546830
vt 0.569810 0.650613
vt 0.572166 0.650613
vt 0.570336 0.599387
vt 0.232258 0.750000
vt 0.267742 0.750000
vt 0.328170 0.728262
vt 0.353262 0.703170
vt 0.267742 0.500000
vt 0.232258 0.500000
vt 0.125000 0.681432
vt 0.125000 0.568568
vt 0.193568 0.500000
vt 0.306432 0.500000
vt 0.306432 0.750000
vt 0.193568 0.750000
vt 0.312500 0.461402
vt 0.317063 0.466960
vt 0.326465 0.457541
vt 0.327011 0.438243
vt 0.317314 0.437500
vt 0.312500 0.437500
vt 0.329496 0.405523
vt 0.331208 0.385828
vt 0.322559 0.375000
vt 0.322120 0.375000
vt 0.312500 0.383816
vt 0.312500 0.404223
vt 0.312500 0.437122
vt 0.322386 0.374756
vt 0.288932 0.498336
vt 0.297433 0.488604
vt 0.285941 0.473978
vt 0.305229 0.452182
vt 0.281250 0.437500
vt 0.281250 0.497967
vt 0.308215 0.388262
vt 0.297842 0.375000
vt 0.281250 0.375000
vt 0.309127 0.436960
vt 0.311014 0.404154
vt 0.294938 0.337289
vt 0.281250 0.336663
vt 0.289446 0.363446
vt 0.303524 0.348751
vt 0.273290 0.497838
vt 0.250000 0.437500
vt 0.250000 0.477518
vt 0.273422 0.477896
vt 0.250000 0.375000
vt 0.276856 0.336595
vt 0.275849 0.358318
vt 0.250000 0.357906
vt 0.224300 0.487738
vt 0.232426 0.497745
vt 0.247775 0.497496
vt 0.247767 0.477554
vt 0.218750 0.437500
vt 0.218750 0.453150
vt 0.235457 0.473485
vt 0.224873 0.375000
vt 0.218750 0.382664
vt 0.229751 0.336494
vt 0.221018 0.347680
vt 0.234078 0.362810
vt 0.247516 0.357946
vt 0.247469 0.336223
vt 0.196432 0.437500
vt 0.196775 0.456023
vt 0.205418 0.465755
vt 0.216981 0.451130
vt 0.200756 0.375000
vt 0.193587 0.384150
vt 0.194727 0.403887
vt 0.212042 0.403079
vt 0.213168 0.435885
vt 0.196396 0.436694
vt 0.215190 0.387187
vt 0.203594 0.375000
vt 0.201990 0.373277
s 0
usemtl Material.005
f 30/1/1 6/2/1 4/2/1 18/3/1
f 8/4/2 43/5/2 47/6/2 13/4/2
f 41/7/3 12/8/3 95/9/3 96/10/3 97/11/3
f 99/12/4 31/13/4 11/14/4 98/15/4
f 100/16/5 8/4/5 34/17/5 101/18/5
f 10/19/6 36/20/6 103/21/6 102/22/6
f 38/23/7 10/19/7 102/22/7 104/24/7
f 106/25/8 39/26/8 6/2/8 105/27/8
f 10/19/9 38/23/9 19/28/9 15/19/9
f 9/29/10 35/30/10 27/31/10 16/29/10
f 6/2/11 39/26/11 23/32/11 4/2/11
f 9/29/3 42/33/3 107/34/3 108/35/3
f 7/36/12 33/37/12 21/38/12 14/36/12
f 98/39/13 11/40/13 44/41/13 109/42/13
f 6/2/14 30/1/14 111/43/14 110/44/14 105/27/14
f 12/8/15 41/7/15 45/45/15 2/8/15
f 11/14/16 31/13/16 25/46/16 1/14/16
f 44/41/2 11/40/2 1/40/2 48/47/2
f 36/20/10 10/19/10 15/19/10 28/48/10
f 42/33/15 9/29/15 16/29/15 46/49/15
f 113/50/13 43/5/13 8/4/13 100/16/13 112/51/13
f 32/52/16 12/8/16 2/8/16 26/53/16
f 40/54/11 7/36/11 14/36/11 24/55/11
f 34/17/12 8/4/12 13/4/12 22/56/12
f 5/57/7 37/58/7 115/59/7 114/60/7 116/61/7
f 35/30/6 9/29/6 108/35/6 117/62/6 118/63/6
f 119/64/5 33/37/5 7/36/5 120/65/5
f 95/9/4 12/8/4 32/52/4 121/66/4
f 29/67/14 5/57/14 116/61/14 122/68/14
f 120/65/8 7/36/8 40/54/8 123/69/8
f 37/58/9 5/57/9 3/57/9 20/70/9
f 42/33/13 46/49/13 51/49/13 50/33/13
f 125/71/4 65/37/4 33/37/4 119/64/4 124/72/4
f 103/21/4 36/20/4 54/20/4 126/73/4
f 53/30/14 35/30/14 118/63/14 127/74/14 128/75/14
f 129/76/8 74/23/8 38/23/8 104/24/8
f 37/58/3 73/58/3 130/77/3 115/59/3
f 17/78/5 29/67/5 69/67/5 72/78/5
f 18/79/17 17/80/17 72/80/17 71/79/17
f 30/1/6 18/3/6 71/3/6 70/1/6
f 19/28/8 38/23/8 74/23/8 80/28/8
f 5/57/1 29/67/1 17/78/1 3/57/1
f 50/33/18 51/49/18 52/45/18 49/7/18
f 54/20/19 55/48/19 56/31/19 53/30/19
f 58/52/20 59/53/20 60/46/20 57/81/20
f 62/54/21 63/55/21 64/32/21 61/26/21
f 66/17/22 67/56/22 68/38/22 65/37/22
f 70/1/23 71/3/23 72/78/23 69/67/23
f 73/58/7 74/23/7 129/76/7 131/82/7 130/77/7
f 54/20/6 53/30/6 128/75/6 133/83/6 132/84/6 126/73/6
f 66/17/5 65/37/5 125/71/5 134/85/5
f 136/86/4 58/52/4 57/81/4 137/87/4 135/88/4
f 70/1/14 69/67/14 139/89/14 138/90/14 140/91/14
f 141/92/8 62/54/8 61/26/8 142/93/8
f 76/41/24 77/47/24 78/6/24 75/5/24
f 144/94/13 76/41/13 75/5/13 145/95/13 143/96/13
f 50/33/3 49/7/3 147/97/3 146/98/3
f 73/58/25 79/70/25 80/28/25 74/23/25
f 34/17/14 66/17/14 134/85/14 101/18/14
f 46/99/26 45/100/26 52/100/26 51/99/26
f 121/66/5 32/52/5 58/52/5 136/86/5
f 32/52/5 26/53/5 59/53/5 58/52/5
f 45/45/7 41/7/7 49/7/7 52/45/7
f 57/81/6 31/13/6 99/12/6 137/87/6
f 26/101/27 25/102/27 60/102/27 59/101/27
f 69/67/5 29/67/5 122/68/5 139/89/5
f 25/46/6 31/13/6 57/81/6 60/46/6
f 36/20/4 28/48/4 55/48/4 54/20/4
f 30/1/6 70/1/6 140/91/6 149/103/6 148/104/6 111/43/6
f 28/105/28 27/106/28 56/106/28 55/105/28
f 40/54/7 62/54/7 141/92/7 150/107/7 151/108/7 123/69/7
f 40/54/7 24/55/7 63/55/7 62/54/7
f 27/31/14 35/30/14 53/30/14 56/31/14
f 142/93/13 61/26/13 39/26/13 106/25/13 152/109/13
f 24/55/29 23/32/29 64/32/29 63/55/29
f 23/32/13 39/26/13 61/26/13 64/32/13
f 44/41/8 48/47/8 77/47/8 76/41/8
f 48/110/30 47/111/30 78/111/30 77/110/30
f 34/17/14 22/56/14 67/56/14 66/17/14
f 47/6/3 43/5/3 75/5/3 78/6/3
f 22/112/31 21/113/31 68/113/31 67/112/31
f 109/42/8 44/41/8 76/41/8 144/94/8
f 21/38/4 33/37/4 65/37/4 68/38/4
f 75/5/3 43/5/3 113/50/3 145/95/3
f 107/34/13 42/33/13 50/33/13 146/98/13
f 49/7/7 41/7/7 97/11/7 147/97/7
f 37/58/3 20/70/3 79/70/3 73/58/3
f 20/114/32 19/115/32 80/115/32 79/114/32
f 88/116/33 82/117/33 83/118/33 81/119/33 84/2/33 85/36/33 86/120/33 87/121/33
f 85/36/8 84/2/8 4/2/8 23/32/8 24/55/8 14/36/8
f 82/29/3 88/8/3 2/8/3 45/100/3 46/49/3 16/29/3
f 81/57/7 83/19/7 15/19/7 19/115/7 20/70/7 3/57/7
f 88/8/4 87/14/4 1/14/4 25/102/4 26/53/4 2/8/4
f 87/40/13 86/4/13 13/4/13 47/111/13 48/47/13 1/40/13
f 84/2/14 81/57/14 3/57/14 17/80/14 18/3/14 4/2/14
f 83/19/6 82/29/6 16/29/6 27/106/6 28/48/6 15/19/6
f 86/4/5 85/36/5 14/36/5 21/113/5 22/56/5 13/4/5
f 124/122/34 119/123/34 120/124/34 123/125/34 151/126/34 89/127/34
f 106/128/35 105/129/35 110/130/35 148/131/35 149/132/35 152/133/35
f 150/134/35 89/127/35 151/126/35
f 111/135/36 148/131/36 110/130/36
f 100/136/37 101/137/37 134/138/37 125/139/37 124/122/37 89/127/37 90/140/37 112/141/37
f 152/133/38 149/132/38 140/142/38 138/143/38 91/144/38 90/140/38 89/127/38 150/134/38 141/145/38 142/146/38
f 116/147/39 114/148/39 91/144/39 138/143/39 139/149/39 122/150/39
f 113/151/40 112/141/40 90/140/40 92/152/40 143/153/40 145/154/40
f 91/144/41 93/155/41 92/152/41 90/140/41
f 93/155/42 91/144/42 114/148/42 115/156/42 130/157/42 131/158/42
f 99/159/43 98/160/43 109/161/43 144/162/43 143/153/43 92/152/43 94/163/43 135/164/43 137/165/43
f 94/163/44 92/152/44 93/155/44 132/166/44 133/167/44
f 102/168/45 103/169/45 126/170/45 132/166/45 93/155/45 131/158/45 129/171/45 104/172/45
f 135/164/46 94/163/46 96/173/46 95/174/46 121/175/46 136/176/46
f 117/177/47 108/178/47 107/179/47 146/180/47 147/181/47 97/182/47 96/173/47 94/163/47 133/167/47 128/183/47 127/184/47
f 118/185/48 117/177/48 127/184/48
