# Blender 4.2.1 LTS
# www.blender.org
mtllib PillarDamaged7.mtl
o Cube.007
v -20.944546 -3.082481 7.022066
v -21.736423 -3.082481 6.230187
v -19.641106 -3.082481 4.134870
v -18.849228 -3.082481 4.926748
v -19.841370 -2.481737 4.578468
v -19.292826 -2.481737 5.127013
v -19.292826 -2.481737 6.029923
v -19.841370 -2.481737 6.578468
v -20.884750 1.316759 5.740594
v -21.292826 -2.481737 5.127013
v -20.744282 -2.481737 4.578468
v -20.744282 -2.481737 6.578468
v -21.292826 -2.481737 6.029923
v -20.090069 1.538265 5.740594
v -19.641106 -3.082481 7.022066
v -18.849228 -3.082481 6.230187
v -20.944546 -3.082481 4.134870
v -21.736423 -3.082481 4.926748
v -19.390053 -3.082481 4.385922
v -19.100281 -3.082481 4.675695
v -20.497726 -3.082481 4.134870
v -20.087925 -3.082481 4.134870
v -19.100281 -3.082481 6.481240
v -19.390053 -3.082481 6.771013
v -18.849228 -3.082481 5.373568
v -18.849228 -3.082481 5.783368
v -21.195599 -3.082481 6.771013
v -21.485371 -3.082481 6.481240
v -21.485371 -3.082481 4.675695
v -21.195599 -3.082481 4.385922
v -19.711985 -2.481737 4.707854
v -19.422211 -2.481737 4.997627
v -20.873667 -2.481737 6.449082
v -21.163441 -2.481737 6.159309
v -20.502556 1.481853 5.740594
v -19.677582 1.481853 5.740594
v -19.422211 -2.481737 6.159309
v -19.711985 -2.481737 6.449082
v -21.163441 -2.481737 4.997627
v -20.873667 -2.481737 4.707854
v -20.087925 -2.481737 4.578468
v -20.497726 -2.481737 4.578468
v -19.292826 -2.481737 5.373568
v -19.292826 -2.481737 5.783368
v -20.502556 1.481853 4.825442
v -21.292826 -2.481737 5.783368
v -21.292826 -2.481737 5.373568
v -20.087925 -2.481737 6.578468
v -20.497726 -2.481737 6.578468
v -21.736423 -3.082481 5.783368
v -21.736423 -3.082481 5.373568
v -20.087925 -3.082481 7.022066
v -20.497726 -3.082481 7.022066
v -21.038315 -2.565521 5.783368
v -21.038315 -2.565521 5.373568
v -21.520874 -2.926971 5.373568
v -21.520874 -2.926971 5.783368
v -20.983847 -2.567106 5.177220
v -20.694073 -2.567106 4.887447
v -21.044596 -2.929387 4.536924
v -21.334370 -2.929387 4.826697
v -20.694073 -2.567106 6.269489
v -20.983847 -2.567106 5.979716
v -21.334370 -2.929387 6.330238
v -21.044596 -2.929387 6.620011
v -19.547337 -2.565521 5.373568
v -19.547337 -2.565521 5.783368
v -19.064777 -2.926971 5.783368
v -19.064777 -2.926971 5.373568
v -19.601805 -2.567106 5.979716
v -19.891579 -2.567106 6.269489
v -19.541056 -2.929387 6.620011
v -19.251282 -2.929387 6.330238
v -19.891579 -2.567106 4.887447
v -19.601805 -2.567106 5.177220
v -19.251282 -2.929387 4.826697
v -19.541056 -2.929387 4.536924
v -20.087925 -2.565521 4.832978
v -20.497726 -2.565521 4.832978
v -20.087925 -2.565521 6.323957
v -20.497726 -2.565521 6.323957
v -20.497726 -2.926971 6.806516
v -20.087925 -2.926971 6.806516
v -20.087925 -2.926971 4.350420
v -20.497726 -2.926971 4.350420
v -19.641106 -3.534341 4.134870
v -21.736423 -3.534341 4.926748
v -20.944546 -3.534341 4.134870
v -18.849228 -3.534341 4.926748
v -18.849228 -3.534341 6.230187
v -19.641106 -3.534341 7.022066
v -20.944546 -3.534341 7.022066
v -21.736423 -3.534341 6.230187
v -21.292826 1.991902 6.029923
v -21.292826 1.991902 5.783368
v -20.744282 1.377437 6.578468
v -20.873667 1.321547 6.449082
v -19.841370 1.504253 6.578468
v -19.711985 1.486558 6.449082
v -20.744282 1.377437 4.578468
v -20.873667 1.321547 4.707854
v -20.497726 1.482513 4.578468
v -20.502556 1.481853 4.578468
v -19.292826 1.320998 5.127013
v -19.292826 1.320998 5.373568
v -21.292826 1.991902 5.373568
v -21.292826 1.991902 5.127013
v -20.497726 1.482513 6.578468
v -20.502556 1.481853 6.578468
v -19.295387 1.316759 5.124451
v -19.422211 1.371543 4.997627
v -20.087925 1.537972 6.578468
v -20.087925 1.537972 4.578468
v -19.841370 1.504253 4.578468
v -21.163441 1.777839 4.997627
v -19.422211 1.371543 6.159309
v -19.295387 1.316759 6.032485
v -19.292826 1.320998 6.029923
v -21.163441 1.777839 6.159309
v -19.711985 1.486558 4.707854
v -19.292826 1.320998 5.783368
v -19.601805 1.449120 5.979716
v -20.756079 1.372340 4.825442
v -20.694073 1.399124 4.887447
v -20.983847 1.480710 5.177220
v -20.497726 1.482513 4.825442
v -20.497726 1.482513 4.832978
v -20.087925 1.537972 4.825442
v -20.087925 1.537972 4.832978
v -20.090069 1.538265 4.832978
v -20.884750 1.316759 5.078123
v -19.677582 1.481853 6.055492
v -19.891579 1.511119 6.269489
v -20.983847 1.480710 5.979716
v -20.884750 1.316759 6.078813
v -20.694073 1.399124 6.269489
v -19.677582 1.481853 5.101443
v -19.891579 1.511119 4.887447
v -19.601805 1.449120 5.177220
v -19.547337 1.425592 5.740594
v -19.547337 1.425592 5.783368
v -19.547337 1.425592 5.373568
v -20.497726 1.482513 6.323957
v -20.087925 1.537972 6.323957
v -20.090069 1.538265 6.323957
v -21.038315 1.570826 5.373568
v -21.038315 1.570826 5.740594
v -21.038315 1.570826 5.783368
v -19.829573 1.502639 4.825442
v -19.295387 1.316759 5.783368
v -19.295387 1.316759 5.373568
vn 0.5636 0.6040 -0.5636
vn -0.0000 0.5940 0.8045
vn -1.0000 -0.0000 -0.0000
vn -0.7071 -0.0000 0.7071
vn 0.7071 -0.0000 0.7071
vn -0.7071 -0.0000 -0.7071
vn -0.0000 -0.0000 -1.0000
vn 1.0000 -0.0000 -0.0000
vn -0.0000 0.5940 -0.8045
vn -0.5636 0.6040 -0.5636
vn 0.8045 0.5940 -0.0000
vn 0.5636 0.6040 0.5636
vn -0.0000 -0.0000 1.0000
vn 0.7071 -0.0000 -0.7071
vn -0.8045 0.5940 -0.0000
vn -0.5636 0.6040 0.5636
vn 0.4120 0.8127 -0.4120
vn -0.5995 0.8004 -0.0000
vn -0.4172 0.8074 -0.4172
vn -0.4172 0.8074 0.4172
vn 0.5995 0.8004 -0.0000
vn 0.4172 0.8074 0.4172
vn 0.4172 0.8074 -0.4172
vn -0.0000 0.8004 0.5995
vn -0.0000 0.8004 -0.5995
vn -0.5851 0.8110 -0.0000
vn -0.4120 0.8127 0.4120
vn -0.4120 0.8127 -0.4120
vn 0.5851 0.8110 -0.0000
vn -0.0000 0.8110 0.5851
vn 0.4120 0.8127 0.4120
vn -0.0000 0.8110 -0.5851
vn -0.0000 -1.0000 -0.0000
vn 0.8558 0.5173 -0.0000
vn -0.1355 0.9908 -0.0000
vn 0.3965 0.9180 -0.0000
vn 0.1355 0.9908 -0.0000
vn -0.3965 0.9180 -0.0000
vn -0.8558 0.5173 -0.0000
vt 0.375000 0.536222
vt 0.375000 0.568568
vt 0.375000 0.525091
vt 0.375000 0.818568
vt 0.375000 0.849387
vt 0.375000 0.857258
vt 0.375000 0.099387
vt 0.375000 0.068568
vt 0.600328 0.068568
vt 0.600328 0.099387
vt 0.566564 0.016173
vt 0.375000 0.016173
vt 0.375000 0.000000
vt 0.569379 0.000000
vt 0.575766 0.818568
vt 0.375000 0.786222
vt 0.574875 0.786222
vt 0.375000 0.318568
vt 0.375000 0.286222
vt 0.566564 0.286222
vt 0.569379 0.318568
vt 0.375000 0.349387
vt 0.574638 0.348784
vt 0.574671 0.349387
vt 0.566536 0.599387
vt 0.375000 0.599387
vt 0.566536 0.568568
vt 0.375000 0.357258
vt 0.375000 0.181432
vt 0.375000 0.213778
vt 0.375000 0.224909
vt 0.375000 0.607258
vt 0.375000 0.150613
vt 0.600328 0.150613
vt 0.600328 0.181432
vt 0.375000 0.681432
vt 0.375000 0.713778
vt 0.375000 0.724909
vt 0.574671 0.900613
vt 0.574638 0.901216
vt 0.569379 0.931432
vt 0.375000 0.931432
vt 0.375000 0.900613
vt 0.569082 0.536222
vt 0.566322 0.567928
vt 0.375000 0.107258
vt 0.375000 0.021738
vt 0.375000 0.892742
vt 0.375000 0.275091
vt 0.375000 0.142742
vt 0.577464 0.849387
vt 0.375000 0.052395
vt 0.375000 0.046830
vt 0.375000 0.650613
vt 0.375000 0.642742
vt 0.375000 0.775091
vt 0.375000 0.431432
vt 0.375000 0.400613
vt 0.577465 0.400613
vt 0.575766 0.431432
vt 0.589546 0.213778
vt 0.569082 0.713778
vt 0.566536 0.681432
vt 0.566322 0.682072
vt 0.589546 0.052395
vt 0.375000 0.463778
vt 0.574875 0.463778
vt 0.566536 0.650613
vt 0.375000 0.392742
vt 0.570562 0.713778
vt 0.568128 0.286222
vt 0.567616 0.286222
vt 0.572100 0.213778
vt 0.572233 0.349387
vt 0.572304 0.349387
vt 0.574935 0.400613
vt 0.575009 0.400613
vt 0.375000 0.474909
vt 0.353262 0.546830
vt 0.328170 0.521738
vt 0.375000 0.016173
vt 0.574949 0.400345
vt 0.564117 0.238553
vt 0.573581 0.786222
vt 0.572156 0.732723
vt 0.572100 0.052395
vt 0.568128 0.016173
vt 0.564117 0.040008
vt 0.570562 0.536222
vt 0.573581 0.463778
vt 0.572156 0.517277
vt 0.569459 0.650613
vt 0.569459 0.599387
vt 0.569459 0.645266
vt 0.574935 0.849387
vt 0.574949 0.849655
vt 0.572233 0.900613
vt 0.576535 0.099387
vt 0.576535 0.104734
vt 0.576535 0.150613
vt 0.125000 0.607258
vt 0.125000 0.642742
vt 0.146738 0.703170
vt 0.171830 0.728262
vt 0.574035 0.463778
vt 0.171830 0.521738
vt 0.146738 0.546830
vt 0.566301 0.650613
vt 0.566301 0.599388
vt 0.232258 0.750000
vt 0.267742 0.750000
vt 0.328170 0.728262
vt 0.353262 0.703170
vt 0.267742 0.500000
vt 0.232258 0.500000
vt 0.125000 0.681432
vt 0.125000 0.568568
vt 0.193568 0.500000
vt 0.306432 0.500000
vt 0.306432 0.750000
vt 0.193568 0.750000
vt 0.312500 0.583096
vt 0.312500 0.599934
vt 0.312500 0.625000
vt 0.312500 0.579757
vt 0.312500 0.586525
vt 0.312500 0.574259
vt 0.437500 0.562500
vt 0.437500 0.625000
vt 0.437500 0.563015
vt 0.562500 0.599934
vt 0.562500 0.582921
vt 0.562500 0.574259
vt 0.562500 0.586525
vt 0.562500 0.581349
vt 0.562500 0.625000
vt 0.500000 0.562500
vt 0.500000 0.563015
vt 0.500000 0.625000
vt 0.500000 0.581349
vt 0.500000 0.566735
vt 0.500000 0.554469
vt 0.500000 0.545633
vt 0.375000 0.579757
vt 0.375000 0.625000
vt 0.375000 0.562500
vt 0.375000 0.566735
vt 0.375000 0.545633
vt 0.375000 0.554469
vt 0.437500 0.545633
vt 0.375000 0.673386
vt 0.375000 0.682222
vt 0.375000 0.648098
vt 0.375000 0.661121
vt 0.437500 0.664841
vt 0.437500 0.682222
vt 0.625000 0.599934
vt 0.625000 0.583096
vt 0.625000 0.582921
vt 0.625000 0.627921
vt 0.625000 0.644935
vt 0.625000 0.644760
vt 0.312500 0.644760
vt 0.312500 0.653596
vt 0.312500 0.641331
vt 0.312500 0.648098
vt 0.312500 0.627921
vt 0.500000 0.682222
vt 0.500000 0.673386
vt 0.500000 0.661121
vt 0.500000 0.646506
vt 0.500000 0.664841
vt 0.562500 0.627921
vt 0.562500 0.646506
vt 0.562500 0.641331
vt 0.562500 0.653596
vt 0.562500 0.644935
s 0
usemtl Material.007
f 32/1/1 6/2/1 4/2/1 20/3/1
f 8/4/2 48/5/2 52/6/2 15/4/2
f 46/7/3 13/8/3 94/9/3 95/10/3
f 97/11/4 33/12/4 12/13/4 96/14/4
f 98/15/5 8/4/5 38/16/5 99/17/5
f 11/18/6 40/19/6 101/20/6 100/21/6
f 42/22/7 11/18/7 100/21/7 103/23/7 102/24/7
f 105/25/8 43/26/8 6/2/8 104/27/8
f 11/18/9 42/22/9 21/28/9 17/18/9
f 10/29/10 39/30/10 29/31/10 18/29/10
f 6/2/11 43/26/11 25/32/11 4/2/11
f 10/29/3 47/33/3 106/34/3 107/35/3
f 7/36/12 37/37/12 23/38/12 16/36/12
f 108/39/13 109/40/13 96/41/13 12/42/13 49/43/13
f 6/2/14 32/1/14 111/44/14 110/45/14 104/27/14
f 13/8/15 46/7/15 50/46/15 2/8/15
f 12/13/16 33/12/16 27/47/16 1/13/16
f 49/43/2 12/42/2 1/42/2 53/48/2
f 40/19/10 11/18/10 17/18/10 30/49/10
f 47/33/15 10/29/15 18/29/15 51/50/15
f 112/51/13 48/5/13 8/4/13 98/15/13
f 34/52/16 13/8/16 2/8/16 28/53/16
f 44/54/11 7/36/11 16/36/11 26/55/11
f 38/16/12 8/4/12 15/4/12 24/56/12
f 5/57/7 41/58/7 113/59/7 114/60/7
f 39/30/6 10/29/6 107/35/6 115/61/6
f 116/62/5 37/37/5 7/36/5 118/63/5 117/64/5
f 94/9/4 13/8/4 34/52/4 119/65/4
f 31/66/14 5/57/14 114/60/14 120/67/14
f 118/63/8 7/36/8 44/54/8 121/68/8
f 41/58/9 5/57/9 3/57/9 22/69/9
f 47/33/13 51/50/13 56/50/13 55/33/13
f 122/70/4 70/37/4 37/37/4 116/62/4
f 101/20/4 40/19/4 59/19/4 124/71/4 123/72/4
f 58/30/14 39/30/14 115/61/14 125/73/14
f 127/74/8 79/22/8 42/22/8 102/24/8 126/75/8
f 41/58/3 78/58/3 129/76/3 128/77/3 113/59/3
f 19/78/5 31/66/5 74/66/5 77/78/5
f 20/79/17 19/80/17 77/80/17 76/79/17
f 32/1/6 20/3/6 76/3/6 75/1/6
f 21/28/8 42/22/8 79/22/8 85/28/8
f 5/57/1 31/66/1 19/78/1 3/57/1
f 55/33/18 56/50/18 57/46/18 54/7/18
f 59/19/19 60/49/19 61/31/19 58/30/19
f 63/52/20 64/53/20 65/47/20 62/81/20
f 67/54/21 68/55/21 69/32/21 66/26/21
f 71/16/22 72/56/22 73/38/22 70/37/22
f 75/1/23 76/3/23 77/78/23 74/66/23
f 130/82/7 129/76/7 78/58/7 79/22/7 127/74/7
f 59/19/6 58/30/6 125/73/6 131/83/6 124/71/6
f 133/84/5 71/16/5 70/37/5 122/70/5 132/85/5
f 134/86/4 63/52/4 62/81/4 136/87/4 135/88/4
f 139/89/14 75/1/14 74/66/14 138/90/14 137/91/14
f 141/92/8 67/54/8 66/26/8 142/93/8 140/94/8
f 81/43/24 82/48/24 83/6/24 80/5/24
f 144/95/13 145/96/13 143/97/13 81/43/13 80/5/13
f 55/33/3 54/7/3 148/98/3 147/99/3 146/100/3
f 78/58/25 84/69/25 85/28/25 79/22/25
f 38/16/14 71/16/14 133/84/14 99/17/14
f 51/101/26 50/102/26 57/102/26 56/101/26
f 119/65/5 34/52/5 63/52/5 134/86/5
f 34/52/5 28/53/5 64/53/5 63/52/5
f 50/46/7 46/7/7 54/7/7 57/46/7
f 62/81/6 33/12/6 97/11/6 136/87/6
f 28/103/27 27/104/27 65/104/27 64/103/27
f 74/66/5 31/66/5 120/67/5 149/105/5 138/90/5
f 27/47/6 33/12/6 62/81/6 65/47/6
f 40/19/4 30/49/4 60/49/4 59/19/4
f 32/1/6 75/1/6 139/89/6 111/44/6
f 30/106/28 29/107/28 61/107/28 60/106/28
f 44/54/7 67/54/7 141/92/7 150/108/7 121/68/7
f 44/54/7 26/55/7 68/55/7 67/54/7
f 29/31/14 39/30/14 58/30/14 61/31/14
f 142/93/13 66/26/13 43/26/13 105/25/13 151/109/13
f 26/55/29 25/32/29 69/32/29 68/55/29
f 25/32/13 43/26/13 66/26/13 69/32/13
f 49/43/8 53/48/8 82/48/8 81/43/8
f 53/110/30 52/111/30 83/111/30 82/110/30
f 38/16/14 24/56/14 72/56/14 71/16/14
f 52/6/3 48/5/3 80/5/3 83/6/3
f 24/112/31 23/113/31 73/113/31 72/112/31
f 108/39/8 49/43/8 81/43/8 143/97/8
f 23/38/4 37/37/4 70/37/4 73/38/4
f 80/5/3 48/5/3 112/51/3 144/95/3
f 106/34/13 47/33/13 55/33/13 146/100/13
f 54/7/7 46/7/7 95/10/7 148/98/7
f 41/58/3 22/69/3 84/69/3 78/58/3
f 22/114/32 21/115/32 85/115/32 84/114/32
f 93/116/33 87/117/33 88/118/33 86/119/33 89/2/33 90/36/33 91/120/33 92/121/33
f 90/36/8 89/2/8 4/2/8 25/32/8 26/55/8 16/36/8
f 87/29/3 93/8/3 2/8/3 50/102/3 51/50/3 18/29/3
f 86/57/7 88/18/7 17/18/7 21/115/7 22/69/7 3/57/7
f 93/8/4 92/13/4 1/13/4 27/104/4 28/53/4 2/8/4
f 92/42/13 91/4/13 15/4/13 52/111/13 53/48/13 1/42/13
f 89/2/14 86/57/14 3/57/14 19/80/14 20/3/14 4/2/14
f 88/18/6 87/29/6 18/29/6 29/107/6 30/49/6 17/18/6
f 91/4/5 90/36/5 16/36/5 23/113/5 24/56/5 15/4/5
f 107/122/34 106/123/34 146/123/34 147/124/34 9/124/34 131/125/34 125/126/34 115/127/34
f 45/128/35 35/129/35 14/129/35 130/130/35 127/130/35 126/128/35
f 151/131/36 110/132/36 111/133/36 139/134/36 137/135/36 36/136/36 140/136/36 142/131/36
f 149/137/37 128/137/37 129/138/37 130/138/37 14/139/37 36/139/37 137/140/37 138/141/37
f 120/142/37 114/143/37 113/143/37 128/137/37 149/137/37
f 131/144/38 9/145/38 35/145/38 45/146/38 123/146/38 124/147/38
f 100/148/38 101/149/38 123/146/38 45/146/38 103/148/38
f 102/150/35 103/150/35 45/128/35 126/128/35
f 97/151/38 96/152/38 109/152/38 35/145/38 9/145/38 135/153/38 136/154/38
f 145/155/35 14/129/35 35/129/35 109/156/35 108/156/35 143/155/35
f 105/157/39 104/158/39 110/159/39 151/157/39
f 150/160/39 117/161/39 118/162/39 121/160/39
f 94/163/34 119/164/34 134/165/34 135/166/34 9/124/34 147/124/34 148/167/34 95/167/34
f 112/168/37 98/168/37 99/169/37 133/170/37 132/171/37 36/139/37 14/139/37 145/172/37 144/172/37
f 141/173/36 140/136/36 36/136/36 132/174/36 122/175/36 116/176/36 117/177/36 150/173/36
