# Blender 4.2.1 LTS
# www.blender.org
mtllib PillarDamaged2.mtl
o Cube.002
v -14.635536 -3.082481 1.443598
v -15.427414 -3.082481 0.651720
v -13.332096 -3.082481 -1.443598
v -12.540218 -3.082481 -0.651720
v -13.532361 -2.481737 -1.000000
v -12.983816 -2.481737 -0.451455
v -12.983816 -2.481737 0.451455
v -13.532361 -2.481737 1.000000
v -14.983816 -2.481737 -0.451455
v -14.435271 -2.481737 -1.000000
v -14.435271 -2.481737 1.000000
v -14.983816 -2.481737 0.451455
v -13.332096 -3.082481 1.443598
v -12.540218 -3.082481 0.651720
v -14.635536 -3.082481 -1.443598
v -15.427414 -3.082481 -0.651720
v -13.081044 -3.082481 -1.192545
v -12.791271 -3.082481 -0.902772
v -14.188717 -3.082481 -1.443598
v -13.778915 -3.082481 -1.443598
v -12.791271 -3.082481 0.902772
v -13.081044 -3.082481 1.192545
v -12.540218 -3.082481 -0.204900
v -12.540218 -3.082481 0.204900
v -14.886588 -3.082481 1.192545
v -15.176361 -3.082481 0.902772
v -15.176361 -3.082481 -0.902772
v -14.886588 -3.082481 -1.192545
v -13.402975 -2.481737 -0.870614
v -13.113202 -2.481737 -0.580841
v -14.564657 -2.481737 0.870614
v -14.854430 -2.481737 0.580841
v -13.113202 -2.481737 0.580841
v -13.402975 -2.481737 0.870614
v -14.854430 -2.481737 -0.580841
v -14.564657 -2.481737 -0.870614
v -13.778915 -2.481737 -1.000000
v -14.188717 -2.481737 -1.000000
v -12.983816 -2.481737 -0.204900
v -12.983816 -2.481737 0.204900
v -14.983816 -2.481737 0.204900
v -14.983816 -2.481737 -0.204900
v -13.778915 -2.481737 1.000000
v -14.188717 -2.481737 1.000000
v -15.427414 -3.082481 0.204900
v -15.427414 -3.082481 -0.204900
v -13.778915 -3.082481 1.443598
v -14.188717 -3.082481 1.443598
v -14.729305 -2.565521 0.204900
v -14.729305 -2.565521 -0.204900
v -15.211864 -2.926971 -0.204900
v -15.211864 -2.926971 0.204900
v -14.674837 -2.567106 -0.401248
v -14.385064 -2.567106 -0.691021
v -14.735587 -2.929387 -1.041543
v -15.025360 -2.929387 -0.751770
v -14.385064 -2.567106 0.691021
v -14.674837 -2.567106 0.401248
v -15.025360 -2.929387 0.751770
v -14.735587 -2.929387 1.041543
v -13.238327 -2.565521 -0.204900
v -13.238327 -2.565521 0.204900
v -12.755768 -2.926971 0.204900
v -12.755768 -2.926971 -0.204900
v -13.292795 -2.567106 0.401248
v -13.582568 -2.567106 0.691021
v -13.232046 -2.929387 1.041543
v -12.942273 -2.929387 0.751770
v -13.582568 -2.567106 -0.691021
v -13.292795 -2.567106 -0.401248
v -12.942273 -2.929387 -0.751770
v -13.232046 -2.929387 -1.041543
v -13.778915 -2.565521 -0.745490
v -14.188717 -2.565521 -0.745490
v -13.778915 -2.565521 0.745490
v -14.188717 -2.565521 0.745490
v -14.188717 -2.926971 1.228048
v -13.778915 -2.926971 1.228048
v -13.778915 -2.926971 -1.228048
v -14.188717 -2.926971 -1.228048
v -13.332096 -3.534341 -1.443598
v -15.427414 -3.534341 -0.651720
v -14.635536 -3.534341 -1.443598
v -12.540218 -3.534341 -0.651720
v -12.540218 -3.534341 0.651720
v -13.332096 -3.534341 1.443598
v -14.635536 -3.534341 1.443598
v -15.427414 -3.534341 0.651720
v -13.000875 1.731563 -0.445133
v -13.267135 1.572635 0.376164
v -13.600826 1.395844 0.399776
v -13.615018 1.324819 -0.390807
v -13.962902 1.286976 0.414317
v -13.970137 1.218043 -0.376545
v -14.339449 1.250216 0.419227
v -14.339448 1.181989 -0.371730
v -14.715995 1.286977 0.414317
v -14.708759 1.218043 -0.376545
v -14.983816 1.367504 0.403562
v -14.983816 1.376288 0.451455
v -14.983816 1.350741 0.204900
v -14.435271 1.365186 1.000000
v -14.564657 1.354645 0.870614
v -13.532361 1.545662 1.000000
v -13.402975 1.591650 0.870614
v -14.435271 1.197786 -1.000000
v -14.564657 1.209071 -0.870614
v -14.339448 1.188444 -1.000000
v -14.188717 1.203139 -1.000000
v -12.983816 1.752167 -0.447885
v -12.983816 1.752487 -0.451455
v -12.983816 1.766653 -0.204900
v -14.983816 1.300746 -0.387591
v -14.983816 1.316162 -0.204900
v -14.983816 1.301762 -0.451455
v -14.188717 1.370676 1.000000
v -14.339448 1.355604 1.000000
v -13.003513 1.730749 -0.471152
v -13.113202 1.647677 -0.580841
v -13.611726 1.502560 1.000000
v -13.778915 1.451059 1.000000
v -13.648303 1.324524 -1.000000
v -13.778915 1.285336 -1.000000
v -13.532361 1.385719 -1.000000
v -14.854430 1.265000 -0.580841
v -13.113202 1.741101 0.580841
v -12.983816 1.823823 0.451455
v -14.854430 1.360159 0.580841
v -13.402975 1.450340 -0.870614
v -12.983816 1.803102 0.345382
v -12.983816 1.792879 0.204900
v -13.268437 1.581206 0.425606
v -13.292795 1.563407 0.401248
v -14.385064 1.189717 -0.691021
v -14.707172 1.218474 -0.433583
v -14.674837 1.214990 -0.401248
v -14.188717 1.200524 -0.745490
v -13.778915 1.281286 -0.745490
v -13.980402 1.220833 -0.745490
v -13.582568 1.460413 0.691021
v -14.661052 1.281613 0.415033
v -14.674837 1.281785 0.401248
v -14.385064 1.304098 0.691021
v -13.582568 1.350458 -0.691021
v -13.304338 1.489419 -0.412791
v -13.292795 1.496526 -0.401248
v -13.238327 1.583834 0.204900
v -13.238327 1.554012 -0.204900
v -14.188717 1.324492 0.745490
v -13.965969 1.346765 0.745490
v -13.778915 1.404385 0.745490
v -14.729305 1.238774 -0.204900
v -14.729305 1.273353 0.204900
v -14.688268 1.284270 0.414679
v -14.715737 1.292001 0.442148
v -13.279143 1.505205 -0.414900
v -13.287543 1.498917 -0.406500
v -12.992896 1.755599 -0.204900
vn 0.5636 0.6040 -0.5636
vn -0.0000 0.5940 0.8045
vn -1.0000 -0.0000 -0.0000
vn -0.7071 -0.0000 0.7071
vn 0.7071 -0.0000 0.7071
vn -0.7071 -0.0000 -0.7071
vn -0.0000 -0.0000 -1.0000
vn 1.0000 -0.0000 -0.0000
vn -0.0000 0.5940 -0.8045
vn -0.5636 0.6040 -0.5636
vn 0.8045 0.5940 -0.0000
vn 0.5636 0.6040 0.5636
vn -0.0000 -0.0000 1.0000
vn 0.7071 -0.0000 -0.7071
vn -0.8045 0.5940 -0.0000
vn -0.5636 0.6040 0.5636
vn 0.4120 0.8127 -0.4120
vn -0.5995 0.8004 -0.0000
vn -0.4172 0.8074 -0.4172
vn -0.4172 0.8074 0.4172
vn 0.5995 0.8004 -0.0000
vn 0.4172 0.8074 0.4172
vn 0.4172 0.8074 -0.4172
vn -0.0000 0.8004 0.5995
vn -0.0000 0.8004 -0.5995
vn -0.5851 0.8110 -0.0000
vn -0.4120 0.8127 0.4120
vn -0.4120 0.8127 -0.4120
vn 0.5851 0.8110 -0.0000
vn -0.0000 0.8110 0.5851
vn 0.4120 0.8127 0.4120
vn -0.0000 0.8110 -0.5851
vn -0.0000 -1.0000 -0.0000
vn -0.7722 0.6343 -0.0378
vn -0.7652 0.6412 0.0575
vn -0.6337 0.7592 -0.1483
vn -0.6337 0.7715 -0.0561
vn -0.6280 0.7772 0.0393
vn -0.4709 0.8671 -0.1627
vn -0.4709 0.8794 -0.0705
vn -0.4666 0.8841 0.0251
vn -0.2900 0.9413 -0.1726
vn -0.2900 0.9536 -0.0805
vn -0.2873 0.9577 0.0152
vn -0.0979 0.9792 -0.1777
vn -0.0979 0.9915 -0.0855
vn -0.0970 0.9952 0.0102
vn 0.0979 0.9792 -0.1777
vn 0.0979 0.9915 -0.0855
vn 0.0970 0.9952 0.0102
vn 0.2900 0.9536 -0.0805
vn 0.2873 0.9577 0.0152
vn 0.2900 0.9413 -0.1726
vt 0.375000 0.536222
vt 0.375000 0.568568
vt 0.375000 0.525091
vt 0.375000 0.818568
vt 0.375000 0.849387
vt 0.375000 0.857258
vt 0.375000 0.099387
vt 0.375000 0.068568
vt 0.569321 0.068568
vt 0.568878 0.074555
vt 0.568034 0.099387
vt 0.568231 0.016173
vt 0.375000 0.016173
vt 0.375000 0.000000
vt 0.568762 0.000000
vt 0.577852 0.818568
vt 0.375000 0.786222
vt 0.580168 0.786222
vt 0.375000 0.318568
vt 0.375000 0.286222
vt 0.560898 0.286222
vt 0.560330 0.318568
vt 0.375000 0.349387
vt 0.559860 0.330546
vt 0.560600 0.349387
vt 0.588983 0.599387
vt 0.375000 0.599387
vt 0.588269 0.568568
vt 0.588253 0.569014
vt 0.375000 0.357258
vt 0.375000 0.181432
vt 0.375000 0.213778
vt 0.375000 0.224909
vt 0.375000 0.607258
vt 0.375000 0.150613
vt 0.566292 0.150613
vt 0.565516 0.173449
vt 0.565567 0.181432
vt 0.375000 0.681432
vt 0.375000 0.713778
vt 0.375000 0.724909
vt 0.568762 0.931432
vt 0.375000 0.931432
vt 0.375000 0.900613
vt 0.569038 0.900613
vt 0.568279 0.919454
vt 0.582990 0.536222
vt 0.587174 0.563644
vt 0.375000 0.107258
vt 0.375000 0.021738
vt 0.375000 0.892742
vt 0.375000 0.275091
vt 0.375000 0.142742
vt 0.573087 0.849387
vt 0.575681 0.828489
vt 0.375000 0.052395
vt 0.375000 0.046830
vt 0.375000 0.650613
vt 0.375000 0.642742
vt 0.375000 0.775091
vt 0.375000 0.431432
vt 0.375000 0.400613
vt 0.564740 0.400613
vt 0.566714 0.416939
vt 0.569796 0.431432
vt 0.563715 0.213778
vt 0.587696 0.713778
vt 0.591862 0.681432
vt 0.568508 0.052395
vt 0.375000 0.463778
vt 0.573051 0.463778
vt 0.590304 0.650613
vt 0.590819 0.668173
vt 0.375000 0.392742
vt 0.576127 0.713778
vt 0.577351 0.713778
vt 0.557931 0.286222
vt 0.559697 0.213778
vt 0.559161 0.213778
vt 0.558493 0.349387
vt 0.562428 0.400613
vt 0.375000 0.474909
vt 0.353262 0.546830
vt 0.328170 0.521738
vt 0.375000 0.016173
vt 0.559483 0.375427
vt 0.571112 0.786222
vt 0.562414 0.052395
vt 0.563500 0.016173
vt 0.562406 0.050672
vt 0.565758 0.463778
vt 0.572524 0.533336
vt 0.572870 0.536222
vt 0.577169 0.650613
vt 0.575716 0.599387
vt 0.564533 0.900613
vt 0.568426 0.849387
vt 0.565619 0.872769
vt 0.562042 0.099387
vt 0.560357 0.150613
vt 0.125000 0.607258
vt 0.125000 0.642742
vt 0.562695 0.052395
vt 0.563403 0.052395
vt 0.146738 0.703170
vt 0.171830 0.728262
vt 0.573060 0.536222
vt 0.573483 0.536222
vt 0.171830 0.521738
vt 0.146738 0.546830
vt 0.588324 0.599387
vt 0.232258 0.750000
vt 0.267742 0.750000
vt 0.328170 0.728262
vt 0.353262 0.703170
vt 0.267742 0.500000
vt 0.232258 0.500000
vt 0.125000 0.681432
vt 0.125000 0.568568
vt 0.193568 0.500000
vt 0.306432 0.500000
vt 0.306432 0.750000
vt 0.193568 0.750000
vt 0.376188 0.456633
vt 0.377264 0.437500
vt 0.375000 0.437500
vt 0.375000 0.456517
vt 0.375000 0.435377
vt 0.377314 0.437213
vt 0.360954 0.517747
vt 0.374401 0.508502
vt 0.374021 0.500000
vt 0.343750 0.500000
vt 0.343750 0.503952
vt 0.343750 0.438091
vt 0.374513 0.488919
vt 0.347305 0.486738
vt 0.348478 0.454414
vt 0.344686 0.437500
vt 0.364205 0.425565
vt 0.312500 0.500000
vt 0.312500 0.548002
vt 0.320079 0.548452
vt 0.332156 0.538824
vt 0.314743 0.523425
vt 0.341403 0.501863
vt 0.342165 0.437500
vt 0.312500 0.437500
vt 0.343237 0.438476
vt 0.323976 0.388670
vt 0.312500 0.388006
vt 0.317221 0.413389
vt 0.335928 0.399882
vt 0.297898 0.547464
vt 0.281250 0.500000
vt 0.281250 0.526494
vt 0.297608 0.527096
vt 0.281250 0.437500
vt 0.300434 0.387581
vt 0.299370 0.408213
vt 0.281250 0.407557
vt 0.250000 0.500000
vt 0.250000 0.546468
vt 0.262712 0.546626
vt 0.262639 0.526262
vt 0.250000 0.437500
vt 0.263359 0.386689
vt 0.250000 0.386529
vt 0.263085 0.407337
vt 0.218750 0.500000
vt 0.218750 0.502227
vt 0.221051 0.500000
vt 0.231070 0.536351
vt 0.241914 0.546568
vt 0.223310 0.500000
vt 0.246166 0.521794
vt 0.218750 0.437500
vt 0.222159 0.498925
vt 0.218750 0.432871
vt 0.241527 0.386631
vt 0.230228 0.397264
vt 0.246057 0.411645
vt 0.221578 0.435460
vt 0.195403 0.484306
vt 0.195635 0.500000
vt 0.194545 0.437500
vt 0.194818 0.451932
vt 0.217103 0.451125
vt 0.217433 0.483499
vt 0.194308 0.432323
vt 0.205301 0.421412
vt 0.195562 0.503833
vt 0.206562 0.513772
s 0
usemtl Material.002
f 30/1/1 6/2/1 4/2/1 18/3/1
f 8/4/2 43/5/2 47/6/2 13/4/2
f 41/7/3 12/8/3 100/9/3 99/10/3 101/11/3
f 103/12/4 31/13/4 11/14/4 102/15/4
f 104/16/5 8/4/5 34/17/5 105/18/5
f 10/19/6 36/20/6 107/21/6 106/22/6
f 38/23/7 10/19/7 106/22/7 108/24/7 109/25/7
f 112/26/8 39/27/8 6/2/8 111/28/8 110/29/8
f 10/19/9 38/23/9 19/30/9 15/19/9
f 9/31/10 35/32/10 27/33/10 16/31/10
f 6/2/11 39/27/11 23/34/11 4/2/11
f 9/31/3 42/35/3 114/36/3 113/37/3 115/38/3
f 7/39/12 33/40/12 21/41/12 14/39/12
f 102/42/13 11/43/13 44/44/13 116/45/13 117/46/13
f 6/2/14 30/1/14 119/47/14 118/48/14 111/28/14
f 12/8/15 41/7/15 45/49/15 2/8/15
f 11/14/16 31/13/16 25/50/16 1/14/16
f 44/44/2 11/43/2 1/43/2 48/51/2
f 36/20/10 10/19/10 15/19/10 28/52/10
f 42/35/15 9/31/15 16/31/15 46/53/15
f 121/54/13 43/5/13 8/4/13 104/16/13 120/55/13
f 32/56/16 12/8/16 2/8/16 26/57/16
f 40/58/11 7/39/11 14/39/11 24/59/11
f 34/17/12 8/4/12 13/4/12 22/60/12
f 5/61/7 37/62/7 123/63/7 122/64/7 124/65/7
f 35/32/6 9/31/6 115/38/6 125/66/6
f 126/67/5 33/40/5 7/39/5 127/68/5
f 100/9/4 12/8/4 32/56/4 128/69/4
f 29/70/14 5/61/14 124/65/14 129/71/14
f 127/68/8 7/39/8 40/58/8 131/72/8 130/73/8
f 37/62/9 5/61/9 3/61/9 20/74/9
f 42/35/13 46/53/13 51/53/13 50/35/13
f 133/75/4 65/40/4 33/40/4 126/67/4 132/76/4
f 107/21/4 36/20/4 54/20/4 134/77/4
f 53/32/14 35/32/14 125/66/14 135/78/14 136/79/14
f 137/80/8 74/23/8 38/23/8 109/25/8
f 37/62/3 73/62/3 138/81/3 123/63/3
f 17/82/5 29/70/5 69/70/5 72/82/5
f 18/83/17 17/84/17 72/84/17 71/83/17
f 30/1/6 18/3/6 71/3/6 70/1/6
f 19/30/8 38/23/8 74/23/8 80/30/8
f 5/61/1 29/70/1 17/82/1 3/61/1
f 50/35/18 51/53/18 52/49/18 49/7/18
f 54/20/19 55/52/19 56/33/19 53/32/19
f 58/56/20 59/57/20 60/50/20 57/85/20
f 62/58/21 63/59/21 64/34/21 61/27/21
f 66/17/22 67/60/22 68/41/22 65/40/22
f 70/1/23 71/3/23 72/82/23 69/70/23
f 73/62/7 74/23/7 137/80/7 139/86/7 138/81/7
f 54/20/6 53/32/6 136/79/6 134/77/6
f 66/17/5 65/40/5 133/75/5 140/87/5
f 142/88/4 58/56/4 57/85/4 143/89/4 141/90/4
f 70/1/14 69/70/14 144/91/14 145/92/14 146/93/14
f 147/94/8 62/58/8 61/27/8 148/95/8
f 76/44/24 77/51/24 78/6/24 75/5/24
f 149/96/13 76/44/13 75/5/13 151/97/13 150/98/13
f 50/35/3 49/7/3 153/99/3 152/100/3
f 73/62/25 79/74/25 80/30/25 74/23/25
f 34/17/14 66/17/14 140/87/14 105/18/14
f 46/101/26 45/102/26 52/102/26 51/101/26
f 128/69/5 32/56/5 58/56/5 142/88/5 154/103/5 155/104/5
f 32/56/5 26/57/5 59/57/5 58/56/5
f 45/49/7 41/7/7 49/7/7 52/49/7
f 57/85/6 31/13/6 103/12/6 143/89/6
f 26/105/27 25/106/27 60/106/27 59/105/27
f 69/70/5 29/70/5 129/71/5 144/91/5
f 25/50/6 31/13/6 57/85/6 60/50/6
f 36/20/4 28/52/4 55/52/4 54/20/4
f 30/1/6 70/1/6 146/93/6 157/107/6 156/108/6 119/47/6
f 28/109/28 27/110/28 56/110/28 55/109/28
f 40/58/7 62/58/7 147/94/7 131/72/7
f 40/58/7 24/59/7 63/59/7 62/58/7
f 27/33/14 35/32/14 53/32/14 56/33/14
f 148/95/13 61/27/13 39/27/13 112/26/13 158/111/13
f 24/59/29 23/34/29 64/34/29 63/59/29
f 23/34/13 39/27/13 61/27/13 64/34/13
f 44/44/8 48/51/8 77/51/8 76/44/8
f 48/112/30 47/113/30 78/113/30 77/112/30
f 34/17/14 22/60/14 67/60/14 66/17/14
f 47/6/3 43/5/3 75/5/3 78/6/3
f 22/114/31 21/115/31 68/115/31 67/114/31
f 116/45/8 44/44/8 76/44/8 149/96/8
f 21/41/4 33/40/4 65/40/4 68/41/4
f 75/5/3 43/5/3 121/54/3 151/97/3
f 114/36/13 42/35/13 50/35/13 152/100/13
f 49/7/7 41/7/7 101/11/7 153/99/7
f 37/62/3 20/74/3 79/74/3 73/62/3
f 20/116/32 19/117/32 80/117/32 79/116/32
f 88/118/33 82/119/33 83/120/33 81/121/33 84/2/33 85/39/33 86/122/33 87/123/33
f 85/39/8 84/2/8 4/2/8 23/34/8 24/59/8 14/39/8
f 82/31/3 88/8/3 2/8/3 45/102/3 46/53/3 16/31/3
f 81/61/7 83/19/7 15/19/7 19/117/7 20/74/7 3/61/7
f 88/8/4 87/14/4 1/14/4 25/106/4 26/57/4 2/8/4
f 87/43/13 86/4/13 13/4/13 47/113/13 48/51/13 1/43/13
f 84/2/14 81/61/14 3/61/14 17/84/14 18/3/14 4/2/14
f 83/19/6 82/31/6 16/31/6 27/110/6 28/52/6 15/19/6
f 86/4/5 85/39/5 14/39/5 21/115/5 22/60/5 13/4/5
f 112/124/34 110/125/34 89/126/34 158/127/34
f 118/128/35 89/126/35 110/125/35 111/129/35
f 126/130/36 127/131/36 130/132/36 90/133/36 132/134/36
f 157/135/37 90/133/37 130/132/37 131/136/37 147/137/37 148/138/37 158/127/37 89/126/37 156/139/37
f 156/139/38 89/126/38 118/128/38 119/140/38
f 132/134/39 90/133/39 91/141/39 120/142/39 104/143/39 105/144/39 140/145/39 133/146/39
f 145/147/40 92/148/40 91/141/40 90/133/40 157/135/40 146/149/40
f 124/150/41 122/151/41 92/148/41 145/147/41 144/152/41 129/153/41
f 121/154/42 120/142/42 91/141/42 93/155/42 150/156/42 151/157/42
f 92/148/43 94/158/43 93/155/43 91/141/43
f 94/158/44 92/148/44 122/151/44 123/159/44 138/160/44 139/161/44
f 150/156/45 93/155/45 95/162/45 117/163/45 116/164/45 149/165/45
f 94/158/46 96/166/46 95/162/46 93/155/46
f 109/167/47 108/168/47 96/166/47 94/158/47 139/161/47 137/169/47
f 97/170/48 155/171/48 154/172/48
f 103/173/48 102/174/48 117/163/48 95/162/48 141/175/48 143/176/48
f 141/175/49 95/162/49 96/166/49 98/177/49 97/170/49 154/172/49 142/178/49
f 135/179/50 98/177/50 96/166/50 108/168/50 106/180/50 107/181/50 134/182/50 136/183/50
f 101/184/51 99/185/51 97/170/51 98/177/51 113/186/51 114/187/51 152/188/51 153/189/51
f 115/190/52 113/186/52 98/177/52 135/179/52 125/191/52
f 155/171/53 97/170/53 99/185/53 100/192/53 128/193/53
