# Blender 4.2.1 LTS
# www.blender.org
mtllib PillarDamaged5.mtl
o Cube.006
v -9.197493 -3.082481 7.022066
v -9.989370 -3.082481 6.230187
v -7.894053 -3.082481 4.134870
v -7.102175 -3.082481 4.926748
v -8.094317 -2.481737 4.578468
v -7.545773 -2.481737 5.127013
v -7.545773 -2.481737 6.029923
v -8.094317 -2.481737 6.578468
v -9.545773 -2.481737 5.127013
v -8.997228 -2.481737 4.578468
v -8.997228 -2.481737 6.578468
v -9.545773 -2.481737 6.029923
v -7.894053 -3.082481 7.022066
v -7.102175 -3.082481 6.230187
v -9.197493 -3.082481 4.134870
v -9.989370 -3.082481 4.926748
v -7.643000 -3.082481 4.385922
v -7.353228 -3.082481 4.675695
v -8.750673 -3.082481 4.134870
v -8.340872 -3.082481 4.134870
v -7.353228 -3.082481 6.481240
v -7.643000 -3.082481 6.771013
v -7.102175 -3.082481 5.373568
v -7.102175 -3.082481 5.783368
v -9.448545 -3.082481 6.771013
v -9.738317 -3.082481 6.481240
v -9.738317 -3.082481 4.675695
v -9.448545 -3.082481 4.385922
v -7.964931 -2.481737 4.707854
v -7.675159 -2.481737 4.997627
v -9.126614 -2.481737 6.449082
v -9.416387 -2.481737 6.159309
v -7.675159 -2.481737 6.159309
v -7.964931 -2.481737 6.449082
v -9.416387 -2.481737 4.997627
v -9.126614 -2.481737 4.707854
v -8.340872 -2.481737 4.578468
v -8.750673 -2.481737 4.578468
v -7.545773 -2.481737 5.373568
v -7.545773 -2.481737 5.783368
v -9.545773 -2.481737 5.783368
v -9.545773 -2.481737 5.373568
v -8.340872 -2.481737 6.578468
v -8.750673 -2.481737 6.578468
v -9.989370 -3.082481 5.783368
v -9.989370 -3.082481 5.373568
v -8.340872 -3.082481 7.022066
v -8.750673 -3.082481 7.022066
v -9.291262 -2.565521 5.783368
v -9.291262 -2.565521 5.373568
v -9.773821 -2.926971 5.373568
v -9.773821 -2.926971 5.783368
v -9.236794 -2.567106 5.177220
v -8.947021 -2.567106 4.887447
v -9.297544 -2.929387 4.536924
v -9.587317 -2.929387 4.826697
v -8.947021 -2.567106 6.269489
v -9.236794 -2.567106 5.979716
v -9.587317 -2.929387 6.330238
v -9.297544 -2.929387 6.620011
v -7.800283 -2.565521 5.373568
v -7.800283 -2.565521 5.783368
v -7.317725 -2.926971 5.783368
v -7.317725 -2.926971 5.373568
v -7.854752 -2.567106 5.979716
v -8.144525 -2.567106 6.269489
v -7.794002 -2.929387 6.620011
v -7.504229 -2.929387 6.330238
v -8.144525 -2.567106 4.887447
v -7.854752 -2.567106 5.177220
v -7.504229 -2.929387 4.826697
v -7.794002 -2.929387 4.536924
v -8.340872 -2.565521 4.832978
v -8.750673 -2.565521 4.832978
v -8.340872 -2.565521 6.323957
v -8.750673 -2.565521 6.323957
v -8.750673 -2.926971 6.806516
v -8.340872 -2.926971 6.806516
v -8.340872 -2.926971 4.350420
v -8.750673 -2.926971 4.350420
v -7.894053 -3.534341 4.134870
v -9.989370 -3.534341 4.926748
v -9.197493 -3.534341 4.134870
v -7.102175 -3.534341 4.926748
v -7.102175 -3.534341 6.230187
v -7.894053 -3.534341 7.022066
v -9.197493 -3.534341 7.022066
v -9.989370 -3.534341 6.230187
v -9.533607 1.770759 6.021501
v -9.526591 1.775679 5.867202
v -8.950325 1.744053 6.626021
v -9.171545 1.754181 6.390191
v -8.144933 1.727093 6.538846
v -8.124514 1.815825 6.584470
v -8.002902 1.702546 6.438263
v -9.005694 1.763216 4.571525
v -9.111426 1.814425 4.724498
v -8.751621 1.754894 4.563917
v -7.523282 1.750379 5.215858
v -7.539244 1.751558 5.376122
v -9.547136 1.760453 5.372322
v -9.534723 1.763129 5.137808
v -8.765440 1.741888 6.543499
v -7.668872 1.701752 5.044896
v -8.336556 1.722538 6.636602
v -8.305312 1.774476 4.595213
v -8.137190 1.781056 4.560263
v -9.456809 1.771536 5.042119
v -9.458386 1.774478 5.034353
v -7.738940 1.693887 6.137105
v -7.554445 1.791602 6.019193
v -9.464164 1.730467 6.095145
v -9.351610 1.777182 6.231938
v -7.969940 1.774486 4.714863
v -8.071960 1.768033 4.598794
v -7.601866 1.810165 5.810306
v -7.864172 1.788363 5.984854
v -8.909517 1.751338 4.907031
v -9.237201 1.763765 5.179605
v -8.787317 1.753462 4.878508
v -8.305117 1.697853 4.820537
v -8.907665 1.793736 4.850438
v -8.080614 1.736399 6.214250
v -8.133461 1.778969 6.239008
v -9.231169 1.751765 5.989615
v -8.997521 1.742073 6.278380
v -8.079087 1.737413 4.992647
v -8.132842 1.762245 4.899244
v -8.088915 1.811500 4.829893
v -7.853923 1.762221 5.178443
v -7.769573 1.692517 5.821576
v -7.737101 1.774604 5.327972
v -8.690289 1.803165 6.493348
v -8.309072 1.801612 6.426428
v -9.340414 1.759263 5.345555
v -9.327490 1.811674 5.805082
v -8.073935 1.784443 6.338508
v -8.038637 1.790258 6.317467
v -8.955080 1.782312 6.363135
v -8.085939 1.826328 4.797255
v -9.448987 1.707714 5.417916
v -9.428151 1.752572 5.790322
vn 0.5636 0.6040 -0.5636
vn -0.0000 0.5940 0.8045
vn -0.9998 0.0038 -0.0175
vn -0.7214 0.0011 0.6925
vn 0.6458 0.0056 0.7635
vn -0.7683 0.0013 -0.6400
vn -0.0152 -0.0026 -0.9999
vn 0.9992 -0.0038 0.0392
vn -0.0000 0.5940 -0.8045
vn -0.5636 0.6040 -0.5636
vn 0.8045 0.5940 -0.0000
vn -0.9997 0.0012 -0.0258
vn 0.5636 0.6040 0.5636
vn 0.1879 -0.0022 0.9822
vn 0.7369 0.0084 -0.6760
vn -0.8045 0.5940 -0.0000
vn -0.5636 0.6040 0.5636
vn 0.2178 -0.0009 0.9760
vn -0.0840 -0.0002 -0.9965
vn -0.7356 0.0013 -0.6774
vn 0.6172 0.0084 0.7867
vn -0.7372 0.0022 0.6757
vn 0.6915 0.0009 -0.7223
vn 0.9946 0.0077 -0.1032
vn -0.0000 -0.0000 1.0000
vn -0.7365 -0.0050 0.6764
vn -0.6882 0.0012 0.7255
vn 0.6230 0.0072 -0.7822
vn 0.9980 0.0042 0.0632
vn -1.0000 0.0084 0.0032
vn 0.7071 -0.0000 0.7071
vn 0.4120 0.8127 -0.4120
vn -0.7071 -0.0000 -0.7071
vn 1.0000 -0.0000 -0.0000
vn -0.5995 0.8004 -0.0000
vn -0.4172 0.8074 -0.4172
vn -0.4172 0.8074 0.4172
vn 0.5995 0.8004 -0.0000
vn 0.4172 0.8074 0.4172
vn 0.4172 0.8074 -0.4172
vn -0.0646 0.0038 -0.9979
vn -0.6732 -0.0002 -0.7394
vn 0.6974 -0.0000 0.7167
vn -0.7416 -0.0053 0.6708
vn 0.7726 0.0028 -0.6349
vn 0.9993 -0.0109 0.0349
vn -0.0000 0.8004 0.5995
vn 0.0842 -0.0319 0.9959
vn -0.9998 -0.0098 0.0155
vn -0.0000 0.8004 -0.5995
vn 0.7743 -0.0024 -0.6328
vn -0.5851 0.8110 -0.0000
vn 0.8134 -0.0123 0.5816
vn -0.0000 -0.0000 -1.0000
vn -0.6370 -0.0017 -0.7708
vn -0.4120 0.8127 0.4120
vn 0.7027 0.0020 0.7115
vn -0.7071 -0.0000 0.7071
vn -0.6517 0.0049 -0.7585
vn -0.4120 0.8127 -0.4120
vn -0.0303 0.0075 -0.9995
vn 0.7071 -0.0000 -0.7071
vn -0.1066 0.0059 0.9943
vn 0.5851 0.8110 -0.0000
vn -0.0000 0.8110 0.5851
vn -1.0000 -0.0000 -0.0000
vn 0.4120 0.8127 0.4120
vn 0.9707 -0.0089 0.2401
vn -0.9982 0.0053 -0.0591
vn 0.0582 -0.0024 0.9983
vn -0.1329 0.0072 -0.9911
vn -0.0000 0.8110 -0.5851
vn -0.0000 -1.0000 -0.0000
vn 0.7175 0.6941 0.0590
vn 0.2350 0.9369 -0.2587
vn -0.0476 0.9823 -0.1813
vn 0.3534 0.9313 0.0879
vn 0.2635 0.9585 0.1090
vn -0.0495 0.9942 0.0958
vn 0.0142 0.9999 0.0040
vn -0.0464 0.9988 -0.0155
vt 0.375000 0.536222
vt 0.375000 0.568568
vt 0.375000 0.525091
vt 0.375000 0.818568
vt 0.375000 0.849387
vt 0.375000 0.857258
vt 0.375000 0.099387
vt 0.375000 0.068568
vt 0.588759 0.068568
vt 0.588759 0.099387
vt 0.588759 0.016173
vt 0.375000 0.016173
vt 0.375000 0.000000
vt 0.588759 0.000000
vt 0.588759 0.818568
vt 0.375000 0.786222
vt 0.588759 0.786222
vt 0.588759 0.813626
vt 0.375000 0.318568
vt 0.375000 0.286222
vt 0.588759 0.286222
vt 0.588759 0.318568
vt 0.375000 0.349387
vt 0.588759 0.349387
vt 0.588759 0.599387
vt 0.375000 0.599387
vt 0.588759 0.568568
vt 0.375000 0.357258
vt 0.375000 0.181432
vt 0.375000 0.213778
vt 0.375000 0.224909
vt 0.375000 0.607258
vt 0.375000 0.150613
vt 0.588759 0.150613
vt 0.588759 0.181432
vt 0.375000 0.681432
vt 0.375000 0.713778
vt 0.375000 0.724909
vt 0.588759 0.931432
vt 0.375000 0.931432
vt 0.375000 0.900613
vt 0.588759 0.900613
vt 0.588759 0.536222
vt 0.375000 0.107258
vt 0.375000 0.021738
vt 0.375000 0.892742
vt 0.375000 0.275091
vt 0.375000 0.142742
vt 0.588759 0.849387
vt 0.375000 0.052395
vt 0.375000 0.046830
vt 0.375000 0.650613
vt 0.375000 0.642742
vt 0.375000 0.775091
vt 0.375000 0.431432
vt 0.375000 0.400613
vt 0.588759 0.400613
vt 0.588759 0.431432
vt 0.588759 0.196065
vt 0.588759 0.213778
vt 0.588759 0.713778
vt 0.588759 0.681432
vt 0.588759 0.052395
vt 0.588759 0.061252
vt 0.375000 0.463778
vt 0.588759 0.436374
vt 0.588759 0.463778
vt 0.588759 0.650613
vt 0.375000 0.392742
vt 0.585808 0.713778
vt 0.585808 0.286222
vt 0.585808 0.213778
vt 0.585861 0.349387
vt 0.585861 0.400613
vt 0.375000 0.474909
vt 0.353262 0.546830
vt 0.328170 0.521738
vt 0.375000 0.016173
vt 0.585808 0.283268
vt 0.585808 0.786222
vt 0.585808 0.768728
vt 0.585808 0.052395
vt 0.585808 0.016173
vt 0.585808 0.463778
vt 0.585808 0.466732
vt 0.585808 0.481272
vt 0.585808 0.536222
vt 0.585861 0.650613
vt 0.585861 0.599387
vt 0.585861 0.900613
vt 0.585861 0.849387
vt 0.585861 0.099387
vt 0.585861 0.150613
vt 0.586503 0.786222
vt 0.586956 0.786222
vt 0.125000 0.607258
vt 0.125000 0.642742
vt 0.586503 0.016173
vt 0.146738 0.703170
vt 0.171830 0.728262
vt 0.586956 0.463778
vt 0.171830 0.521738
vt 0.146738 0.546830
vt 0.232258 0.750000
vt 0.267742 0.750000
vt 0.328170 0.728262
vt 0.353262 0.703170
vt 0.588095 0.150613
vt 0.588095 0.099387
vt 0.267742 0.500000
vt 0.232258 0.500000
vt 0.125000 0.681432
vt 0.125000 0.568568
vt 0.193568 0.500000
vt 0.306432 0.500000
vt 0.306432 0.750000
vt 0.193568 0.750000
vt 0.562500 0.688717
vt 0.562500 0.698416
vt 0.562500 0.693567
vt 0.562500 0.616532
vt 0.562500 0.611682
vt 0.562500 0.621381
vt 0.500000 0.611682
vt 0.500000 0.610807
vt 0.500000 0.622067
vt 0.500000 0.616532
vt 0.500000 0.624477
vt 0.500000 0.625000
vt 0.500000 0.621381
vt 0.437500 0.664114
vt 0.437500 0.675022
vt 0.437500 0.677612
vt 0.437500 0.635076
vt 0.437500 0.645984
vt 0.437500 0.632487
vt 0.500000 0.699291
vt 0.500000 0.688031
vt 0.500000 0.698416
vt 0.500000 0.688717
vt 0.500000 0.687500
vt 0.500000 0.693567
vt 0.500000 0.664114
vt 0.500000 0.677612
vt 0.500000 0.680747
vt 0.500000 0.672801
vt 0.500000 0.685621
vt 0.500000 0.682525
vt 0.500000 0.627573
vt 0.500000 0.637297
vt 0.500000 0.629352
vt 0.500000 0.632487
vt 0.500000 0.645984
vt 0.562500 0.645984
vt 0.562500 0.635076
vt 0.562500 0.629352
vt 0.562500 0.637297
vt 0.562500 0.627573
vt 0.562500 0.682525
vt 0.562500 0.672801
vt 0.562500 0.680747
vt 0.562500 0.675022
vt 0.562500 0.664114
s 0
usemtl Material.010
f 30/1/1 6/2/1 4/2/1 18/3/1
f 8/4/2 43/5/2 47/6/2 13/4/2
f 41/7/3 12/8/3 89/9/3 90/10/3
f 92/11/4 31/12/4 11/13/4 91/14/4
f 93/15/5 8/4/5 34/16/5 95/17/5 94/18/5
f 10/19/6 36/20/6 97/21/6 96/22/6
f 38/23/7 10/19/7 96/22/7 98/24/7
f 100/25/8 39/26/8 6/2/8 99/27/8
f 10/19/9 38/23/9 19/28/9 15/19/9
f 9/29/10 35/30/10 27/31/10 16/29/10
f 6/2/11 39/26/11 23/32/11 4/2/11
f 9/29/12 42/33/12 101/34/12 102/35/12
f 7/36/13 33/37/13 21/38/13 14/36/13
f 91/39/14 11/40/14 44/41/14 103/42/14
f 6/2/15 30/1/15 104/43/15 99/27/15
f 12/8/16 41/7/16 45/44/16 2/8/16
f 11/13/17 31/12/17 25/45/17 1/13/17
f 44/41/2 11/40/2 1/40/2 48/46/2
f 36/20/10 10/19/10 15/19/10 28/47/10
f 42/33/16 9/29/16 16/29/16 46/48/16
f 105/49/18 43/5/18 8/4/18 93/15/18
f 32/50/17 12/8/17 2/8/17 26/51/17
f 40/52/11 7/36/11 14/36/11 24/53/11
f 34/16/13 8/4/13 13/4/13 22/54/13
f 5/55/19 37/56/19 106/57/19 107/58/19
f 35/30/20 9/29/20 102/35/20 109/59/20 108/60/20
f 110/61/21 33/37/21 7/36/21 111/62/21
f 89/9/22 12/8/22 32/50/22 113/63/22 112/64/22
f 29/65/23 5/55/23 107/58/23 115/66/23 114/67/23
f 111/62/24 7/36/24 40/52/24 116/68/24
f 37/56/9 5/55/9 3/55/9 20/69/9
f 42/33/25 46/48/25 51/48/25 50/33/25
f 117/70/26 65/37/26 33/37/26 110/61/26
f 97/21/27 36/20/27 54/20/27 118/71/27
f 53/30/28 35/30/28 108/60/28 119/72/28
f 120/73/29 74/23/29 38/23/29 98/24/29
f 37/56/30 73/56/30 121/74/30 106/57/30
f 17/75/31 29/65/31 69/65/31 72/75/31
f 18/76/32 17/77/32 72/77/32 71/76/32
f 30/1/33 18/3/33 71/3/33 70/1/33
f 19/28/34 38/23/34 74/23/34 80/28/34
f 5/55/1 29/65/1 17/75/1 3/55/1
f 50/33/35 51/48/35 52/44/35 49/7/35
f 54/20/36 55/47/36 56/31/36 53/30/36
f 58/50/37 59/51/37 60/45/37 57/78/37
f 62/52/38 63/53/38 64/32/38 61/26/38
f 66/16/39 67/54/39 68/38/39 65/37/39
f 70/1/40 71/3/40 72/75/40 69/65/40
f 73/56/41 74/23/41 120/73/41 121/74/41
f 54/20/42 53/30/42 119/72/42 122/79/42 118/71/42
f 124/80/43 66/16/43 65/37/43 117/70/43 123/81/43
f 125/82/44 58/50/44 57/78/44 126/83/44
f 70/1/45 69/65/45 129/84/45 128/85/45 127/86/45 130/87/45
f 131/88/46 62/52/46 61/26/46 132/89/46
f 76/41/47 77/46/47 78/6/47 75/5/47
f 133/90/48 76/41/48 75/5/48 134/91/48
f 50/33/49 49/7/49 136/92/49 135/93/49
f 73/56/50 79/69/50 80/28/50 74/23/50
f 34/16/51 66/16/51 124/80/51 138/94/51 137/95/51 95/17/51
f 46/96/52 45/97/52 52/97/52 51/96/52
f 113/63/53 32/50/53 58/50/53 125/82/53
f 32/50/31 26/51/31 59/51/31 58/50/31
f 45/44/54 41/7/54 49/7/54 52/44/54
f 57/78/55 31/12/55 92/11/55 139/98/55 126/83/55
f 26/99/56 25/100/56 60/100/56 59/99/56
f 69/65/57 29/65/57 114/67/57 140/101/57 129/84/57
f 25/45/33 31/12/33 57/78/33 60/45/33
f 36/20/58 28/47/58 55/47/58 54/20/58
f 30/1/59 70/1/59 130/87/59 104/43/59
f 28/102/60 27/103/60 56/103/60 55/102/60
f 40/52/61 62/52/61 131/88/61 116/68/61
f 40/52/54 24/53/54 63/53/54 62/52/54
f 27/31/62 35/30/62 53/30/62 56/31/62
f 132/89/63 61/26/63 39/26/63 100/25/63
f 24/53/64 23/32/64 64/32/64 63/53/64
f 23/32/25 39/26/25 61/26/25 64/32/25
f 44/41/34 48/46/34 77/46/34 76/41/34
f 48/104/65 47/105/65 78/105/65 77/104/65
f 34/16/62 22/54/62 67/54/62 66/16/62
f 47/6/66 43/5/66 75/5/66 78/6/66
f 22/106/67 21/107/67 68/107/67 67/106/67
f 103/42/68 44/41/68 76/41/68 133/90/68
f 21/38/58 33/37/58 65/37/58 68/38/58
f 75/5/69 43/5/69 105/49/69 134/91/69
f 101/34/70 42/33/70 50/33/70 135/93/70 141/108/70
f 49/7/71 41/7/71 90/10/71 142/109/71 136/92/71
f 37/56/66 20/69/66 79/69/66 73/56/66
f 20/110/72 19/111/72 80/111/72 79/110/72
f 88/112/73 82/113/73 83/114/73 81/115/73 84/2/73 85/36/73 86/116/73 87/117/73
f 85/36/34 84/2/34 4/2/34 23/32/34 24/53/34 14/36/34
f 82/29/66 88/8/66 2/8/66 45/97/66 46/48/66 16/29/66
f 81/55/54 83/19/54 15/19/54 19/111/54 20/69/54 3/55/54
f 88/8/58 87/13/58 1/13/58 25/100/58 26/51/58 2/8/58
f 87/40/25 86/4/25 13/4/25 47/105/25 48/46/25 1/40/25
f 84/2/62 81/55/62 3/55/62 17/77/62 18/3/62 4/2/62
f 83/19/33 82/29/33 16/29/33 27/103/33 28/47/33 15/19/33
f 86/4/31 85/36/31 14/36/31 21/107/31 22/54/31 13/4/31
f 137/118/74 94/119/74 95/120/74
f 114/121/75 115/122/75 140/123/75
f 115/124/76 107/125/76 106/125/76 121/126/76 120/126/76 98/125/76 96/125/76 97/127/76 118/128/76 122/129/76 128/129/76 129/128/76 140/130/76
f 90/131/77 89/132/77 112/133/77 142/131/77
f 102/134/78 101/135/78 141/135/78 109/136/78
f 91/137/79 103/137/79 133/138/79 134/138/79 105/137/79 93/137/79 94/139/79 137/140/79 138/141/79 139/141/79 92/142/79
f 142/143/80 112/144/80 113/145/80 125/146/80 126/147/80 139/141/80 138/141/80 124/147/80 123/148/80 127/149/80 128/129/80 122/129/80 119/150/80 108/151/80 109/152/80 141/153/80 135/153/80 136/143/80
f 100/154/81 99/155/81 104/156/81 130/157/81 127/158/81 123/159/81 117/160/81 110/161/81 111/162/81 116/163/81 131/163/81 132/154/81
