# Blender 4.2.1 LTS
# www.blender.org
mtllib PillarFull.mtl
o Cube.003
v -4.222178 3.082481 0.651720
v -3.430300 3.082481 1.443598
v -3.430300 -3.082481 1.443598
v -4.222178 -3.082481 0.651720
v -2.126861 -3.082481 -1.443598
v -1.334983 -3.082481 -0.651720
v -1.334983 3.082481 -0.651720
v -2.126861 3.082481 -1.443598
v -1.778581 2.481737 -0.451455
v -2.327126 2.481737 -1.000000
v -2.327126 -2.481737 -1.000000
v -1.778581 -2.481737 -0.451455
v -2.327126 2.481737 1.000000
v -1.778581 2.481737 0.451455
v -1.778581 -2.481737 0.451455
v -2.327126 -2.481737 1.000000
v -3.230036 2.481737 -1.000000
v -3.778581 2.481737 -0.451455
v -3.778581 -2.481737 -0.451455
v -3.230036 -2.481737 -1.000000
v -3.778581 2.481737 0.451455
v -3.230036 2.481737 1.000000
v -3.230036 -2.481737 1.000000
v -3.778581 -2.481737 0.451455
v -1.334983 3.082481 0.651720
v -2.126861 3.082481 1.443598
v -2.126861 -3.082481 1.443598
v -1.334983 -3.082481 0.651720
v -4.222178 3.082481 -0.651720
v -3.430300 3.082481 -1.443598
v -3.430300 -3.082481 -1.443598
v -4.222178 -3.082481 -0.651720
v -1.875808 -3.082481 -1.192545
v -1.586035 -3.082481 -0.902772
v -2.983481 -3.082481 -1.443598
v -2.573680 -3.082481 -1.443598
v -1.334983 3.082481 0.204900
v -1.334983 3.082481 -0.204900
v -1.586035 3.082481 -0.902772
v -1.875808 3.082481 -1.192545
v -3.681353 3.082481 -1.192545
v -3.971126 3.082481 -0.902772
v -3.971126 3.082481 0.902772
v -3.681353 3.082481 1.192545
v -1.586035 -3.082481 0.902772
v -1.875808 -3.082481 1.192545
v -1.334983 -3.082481 -0.204900
v -1.334983 -3.082481 0.204900
v -1.875808 3.082481 1.192545
v -1.586035 3.082481 0.902772
v -3.681353 -3.082481 1.192545
v -3.971126 -3.082481 0.902772
v -2.573680 3.082481 -1.443598
v -2.983481 3.082481 -1.443598
v -3.971126 -3.082481 -0.902772
v -3.681353 -3.082481 -1.192545
v -1.907967 2.481737 -0.580841
v -2.197740 2.481737 -0.870614
v -2.197740 -2.481737 -0.870614
v -1.907967 -2.481737 -0.580841
v -3.359422 -2.481737 0.870614
v -3.649195 -2.481737 0.580841
v -3.649195 2.481737 0.580841
v -3.359422 2.481737 0.870614
v -2.197740 2.481737 0.870614
v -1.907967 2.481737 0.580841
v -1.907967 -2.481737 0.580841
v -2.197740 -2.481737 0.870614
v -3.359422 2.481737 -0.870614
v -3.649195 2.481737 -0.580841
v -3.649195 -2.481737 -0.580841
v -3.359422 -2.481737 -0.870614
v -2.573680 -2.481737 -1.000000
v -2.983481 -2.481737 -1.000000
v -2.573680 2.481737 -1.000000
v -2.983481 2.481737 -1.000000
v -1.778581 -2.481737 -0.204900
v -1.778581 -2.481737 0.204900
v -1.778581 2.481737 0.204900
v -1.778581 2.481737 -0.204900
v -3.778581 2.481737 -0.204900
v -3.778581 2.481737 0.204900
v -2.983481 2.481737 1.000000
v -2.573680 2.481737 1.000000
v -3.778581 -2.481737 0.204900
v -3.778581 -2.481737 -0.204900
v -2.573680 -2.481737 1.000000
v -2.983481 -2.481737 1.000000
v -4.222178 3.082481 -0.204900
v -4.222178 3.082481 0.204900
v -2.983481 3.082481 1.443598
v -2.573680 3.082481 1.443598
v -4.222178 -3.082481 0.204900
v -4.222178 -3.082481 -0.204900
v -2.573680 -3.082481 1.443598
v -2.983481 -3.082481 1.443598
v -2.377333 2.567106 0.691021
v -2.087560 2.567106 0.401248
v -1.737037 2.929387 0.751770
v -2.026810 2.929387 1.041543
v -2.087560 2.567106 -0.401248
v -2.377333 2.567106 -0.691021
v -2.026810 2.929387 -1.041543
v -1.737037 2.929387 -0.751770
v -3.524070 -2.565521 0.204900
v -3.524070 -2.565521 -0.204900
v -4.006629 -2.926971 -0.204900
v -4.006629 -2.926971 0.204900
v -3.469602 -2.567106 -0.401248
v -3.179829 -2.567106 -0.691021
v -3.530351 -2.929387 -1.041543
v -3.820124 -2.929387 -0.751770
v -2.983481 2.565521 0.745490
v -2.573680 2.565521 0.745490
v -2.573680 2.926972 1.228048
v -2.983481 2.926972 1.228048
v -3.469602 2.567106 0.401248
v -3.179829 2.567106 0.691021
v -3.530351 2.929387 1.041543
v -3.820124 2.929387 0.751770
v -3.524070 2.565521 -0.204900
v -3.524070 2.565521 0.204900
v -4.006629 2.926972 0.204900
v -4.006629 2.926972 -0.204900
v -3.179829 2.567106 -0.691021
v -3.469602 2.567106 -0.401248
v -3.820124 2.929387 -0.751770
v -3.530351 2.929387 -1.041543
v -2.033091 2.565521 0.204900
v -2.033091 2.565521 -0.204900
v -1.550533 2.926972 -0.204900
v -1.550533 2.926972 0.204900
v -3.179829 -2.567106 0.691021
v -3.469602 -2.567106 0.401248
v -3.820124 -2.929387 0.751770
v -3.530351 -2.929387 1.041543
v -2.033091 -2.565521 -0.204900
v -2.033091 -2.565521 0.204900
v -1.550533 -2.926971 0.204900
v -1.550533 -2.926971 -0.204900
v -2.087560 -2.567106 0.401248
v -2.377333 -2.567106 0.691021
v -2.026810 -2.929387 1.041543
v -1.737037 -2.929387 0.751770
v -2.573680 2.565521 -0.745490
v -2.983481 2.565521 -0.745490
v -2.983481 2.926972 -1.228048
v -2.573680 2.926972 -1.228048
v -2.377333 -2.567106 -0.691021
v -2.087560 -2.567106 -0.401248
v -1.737037 -2.929387 -0.751770
v -2.026810 -2.929387 -1.041543
v -2.573680 -2.565521 -0.745490
v -2.983481 -2.565521 -0.745490
v -2.573680 -2.565521 0.745490
v -2.983481 -2.565521 0.745490
v -2.983481 -2.926971 1.228048
v -2.573680 -2.926971 1.228048
v -2.573680 -2.926971 -1.228048
v -2.983481 -2.926971 -1.228048
v -2.126861 -3.534341 -1.443598
v -4.222178 -3.534341 -0.651720
v -3.430300 -3.534341 -1.443598
v -1.334983 -3.534341 -0.651720
v -1.334983 -3.534341 0.651720
v -2.126861 -3.534341 1.443598
v -3.430300 -3.534341 1.443598
v -4.222178 -3.534341 0.651720
v -1.334983 3.534341 0.651720
v -1.334983 3.534341 -0.651720
v -2.126861 3.534341 -1.443598
v -3.430300 3.534341 -1.443598
v -4.222178 3.534341 -0.651720
v -4.222178 3.534341 0.651720
v -3.430300 3.534341 1.443598
v -2.126861 3.534341 1.443598
vn 0.8045 -0.5940 -0.0000
vn -0.8045 -0.5940 -0.0000
vn 0.5636 0.6040 -0.5636
vn -0.0000 -0.5940 0.8045
vn -0.0000 0.5940 0.8045
vn -1.0000 -0.0000 -0.0000
vn -0.7071 -0.0000 0.7071
vn 0.7071 -0.0000 0.7071
vn -0.7071 -0.0000 -0.7071
vn -0.0000 -0.0000 -1.0000
vn 1.0000 -0.0000 -0.0000
vn -0.0000 0.5940 -0.8045
vn -0.5636 0.6040 -0.5636
vn 0.8045 0.5940 -0.0000
vn 0.5636 -0.6040 0.5636
vn -0.0000 -0.5940 -0.8045
vn 0.5636 -0.6040 -0.5636
vn -0.5636 -0.6040 0.5636
vn 0.5636 0.6040 0.5636
vn -0.0000 -0.0000 1.0000
vn 0.7071 -0.0000 -0.7071
vn -0.8045 0.5940 -0.0000
vn -0.5636 -0.6040 -0.5636
vn -0.5636 0.6040 0.5636
vn 0.5851 -0.8110 -0.0000
vn 0.4120 -0.8127 -0.4120
vn -0.4120 -0.8127 -0.4120
vn 0.4120 -0.8127 0.4120
vn 0.4120 0.8127 -0.4120
vn -0.5851 -0.8110 -0.0000
vn 0.4172 -0.8074 0.4172
vn 0.4172 -0.8074 -0.4172
vn -0.5995 0.8004 -0.0000
vn -0.4172 0.8074 -0.4172
vn -0.0000 -0.8004 0.5995
vn -0.4172 -0.8074 0.4172
vn -0.5995 -0.8004 -0.0000
vn -0.4172 -0.8074 -0.4172
vn 0.5995 -0.8004 -0.0000
vn -0.4172 0.8074 0.4172
vn 0.5995 0.8004 -0.0000
vn 0.4172 0.8074 0.4172
vn -0.0000 -0.8004 -0.5995
vn 0.4172 0.8074 -0.4172
vn -0.0000 0.8004 0.5995
vn -0.0000 0.8004 -0.5995
vn -0.5851 0.8110 -0.0000
vn -0.4120 0.8127 0.4120
vn -0.4120 0.8127 -0.4120
vn 0.5851 0.8110 -0.0000
vn -0.0000 -0.8110 0.5851
vn -0.0000 0.8110 0.5851
vn 0.4120 0.8127 0.4120
vn -0.4120 -0.8127 0.4120
vn -0.0000 -0.8110 -0.5851
vn -0.0000 0.8110 -0.5851
vn -0.0000 1.0000 -0.0000
vn -0.0000 -1.0000 -0.0000
vt 0.625000 0.681432
vt 0.625000 0.650613
vt 0.625000 0.642742
vt 0.625000 0.181432
vt 0.625000 0.150613
vt 0.625000 0.142742
vt 0.375000 0.536222
vt 0.375000 0.568568
vt 0.375000 0.525091
vt 0.625000 0.931432
vt 0.625000 0.900613
vt 0.625000 0.892742
vt 0.375000 0.818568
vt 0.375000 0.849387
vt 0.375000 0.857258
vt 0.375000 0.068568
vt 0.625000 0.068568
vt 0.625000 0.099387
vt 0.375000 0.099387
vt 0.375000 0.000000
vt 0.625000 0.000000
vt 0.625000 0.016173
vt 0.375000 0.016173
vt 0.625000 0.818568
vt 0.375000 0.786222
vt 0.625000 0.786222
vt 0.625000 0.318568
vt 0.375000 0.318568
vt 0.375000 0.286222
vt 0.625000 0.286222
vt 0.625000 0.349387
vt 0.375000 0.349387
vt 0.625000 0.568568
vt 0.625000 0.599387
vt 0.375000 0.599387
vt 0.625000 0.607258
vt 0.375000 0.357258
vt 0.375000 0.181432
vt 0.375000 0.213778
vt 0.375000 0.224909
vt 0.375000 0.607258
vt 0.625000 0.775091
vt 0.625000 0.431432
vt 0.625000 0.400613
vt 0.625000 0.392742
vt 0.625000 0.536222
vt 0.625000 0.525091
vt 0.625000 0.052395
vt 0.625000 0.046830
vt 0.375000 0.150613
vt 0.625000 0.150613
vt 0.375000 0.681432
vt 0.375000 0.713778
vt 0.375000 0.724909
vt 0.375000 0.900613
vt 0.625000 0.900613
vt 0.375000 0.931432
vt 0.375000 0.107258
vt 0.625000 0.275091
vt 0.375000 0.016173
vt 0.375000 0.021738
vt 0.625000 0.713778
vt 0.625000 0.724909
vt 0.625000 0.463778
vt 0.625000 0.474909
vt 0.375000 0.892742
vt 0.375000 0.275091
vt 0.375000 0.142742
vt 0.625000 0.016173
vt 0.625000 0.021738
vt 0.625000 0.849387
vt 0.625000 0.213778
vt 0.625000 0.224909
vt 0.375000 0.052395
vt 0.375000 0.046830
vt 0.375000 0.650613
vt 0.375000 0.642742
vt 0.375000 0.775091
vt 0.625000 0.357258
vt 0.646738 0.546830
vt 0.375000 0.400613
vt 0.625000 0.400613
vt 0.375000 0.431432
vt 0.625000 0.052395
vt 0.375000 0.463778
vt 0.375000 0.650613
vt 0.625000 0.650613
vt 0.625000 0.857258
vt 0.625000 0.107258
vt 0.375000 0.392742
vt 0.625000 0.607258
vt 0.671830 0.521738
vt 0.853262 0.546830
vt 0.828170 0.521738
vt 0.375000 0.474909
vt 0.646738 0.703170
vt 0.671830 0.728262
vt 0.353262 0.546830
vt 0.328170 0.521738
vt 0.875000 0.642742
vt 0.875000 0.607258
vt 0.125000 0.607258
vt 0.125000 0.642742
vt 0.146738 0.703170
vt 0.171830 0.728262
vt 0.171830 0.521738
vt 0.146738 0.546830
vt 0.375000 0.607258
vt 0.732258 0.750000
vt 0.767742 0.750000
vt 0.232258 0.750000
vt 0.267742 0.750000
vt 0.328170 0.728262
vt 0.353262 0.703170
vt 0.828170 0.728262
vt 0.853262 0.703170
vt 0.767742 0.500000
vt 0.732258 0.500000
vt 0.267742 0.500000
vt 0.232258 0.500000
vt 0.693568 0.500000
vt 0.806432 0.500000
vt 0.875000 0.568568
vt 0.875000 0.681432
vt 0.806432 0.750000
vt 0.693568 0.750000
vt 0.125000 0.568568
vt 0.193568 0.500000
vt 0.306432 0.500000
vt 0.306432 0.750000
vt 0.193568 0.750000
vt 0.125000 0.681432
s 0
usemtl Material.003
f 14/1/1 79/2/1 37/3/1 25/1/1
f 18/4/2 81/5/2 89/6/2 29/4/2
f 60/7/3 12/8/3 6/8/3 34/9/3
f 22/10/4 83/11/4 91/12/4 2/10/4
f 16/13/5 87/14/5 95/15/5 27/13/5
f 24/16/6 21/17/6 82/18/6 85/19/6
f 23/20/7 22/21/7 64/22/7 61/23/7
f 13/24/8 16/13/8 68/25/8 65/26/8
f 17/27/9 20/28/9 72/29/9 69/30/9
f 20/28/10 17/27/10 76/31/10 74/32/10
f 12/8/11 9/33/11 80/34/11 77/35/11
f 80/34/1 9/33/1 7/33/1 38/36/1
f 20/28/12 74/32/12 35/37/12 31/28/12
f 19/38/13 71/39/13 55/40/13 32/38/13
f 12/8/14 77/35/14 47/41/14 6/8/14
f 13/24/15 65/26/15 49/42/15 26/24/15
f 10/43/16 75/44/16 53/45/16 8/43/16
f 9/33/17 57/46/17 39/47/17 7/33/17
f 21/17/18 63/48/18 43/49/18 1/17/18
f 86/50/6 81/51/6 18/4/6 19/38/6
f 15/52/19 67/53/19 45/54/19 28/52/19
f 88/55/20 83/56/20 22/10/20 23/57/20
f 9/33/21 12/8/21 60/7/21 57/46/21
f 24/16/22 85/19/22 93/58/22 4/16/22
f 17/27/23 69/30/23 41/59/23 30/27/23
f 23/20/24 61/60/24 51/61/24 3/20/24
f 66/62/15 14/1/15 25/1/15 50/63/15
f 58/64/17 10/43/17 8/43/17 40/65/17
f 88/55/5 23/57/5 3/57/5 96/66/5
f 72/29/13 20/28/13 31/28/13 56/67/13
f 86/50/22 19/38/22 32/38/22 94/68/22
f 64/69/18 22/21/18 2/21/18 44/70/18
f 16/13/20 13/24/20 84/71/20 87/14/20
f 70/72/23 18/4/23 29/4/23 42/73/23
f 62/74/24 24/16/24 4/16/24 52/75/24
f 78/76/14 15/52/14 28/52/14 48/77/14
f 68/25/19 16/13/19 27/13/19 46/78/19
f 76/31/16 17/27/16 30/27/16 54/79/16
f 40/65/21 8/43/21 171/43/21 170/33/21 7/33/21 39/80/21
f 73/81/10 75/82/10 10/43/10 11/83/10
f 70/72/9 71/39/9 19/38/9 18/4/9
f 66/62/8 67/53/8 15/52/8 14/1/8
f 62/74/7 63/84/7 21/17/7 24/16/7
f 58/64/21 59/85/21 11/83/21 10/43/21
f 78/86/11 79/87/11 14/1/11 15/52/11
f 84/71/4 13/24/4 26/24/4 92/88/4
f 82/18/2 21/17/2 1/17/2 90/89/2
f 73/81/12 11/83/12 5/83/12 36/90/12
f 86/50/20 94/68/20 107/68/20 106/50/20
f 37/3/10 79/2/10 129/2/10 132/3/10
f 67/53/7 66/62/7 98/62/7 141/53/7
f 38/91/25 37/3/25 132/3/25 131/91/25
f 69/30/7 72/29/7 110/29/7 125/30/7
f 39/47/9 57/46/9 101/46/9 104/47/9
f 80/34/20 38/36/20 131/36/20 130/34/20
f 71/39/21 70/72/21 126/72/21 109/39/21
f 40/92/26 39/80/26 104/80/26 103/92/26
f 74/32/11 76/31/11 146/31/11 154/32/11
f 58/64/8 40/65/8 103/65/8 102/64/8
f 41/59/7 69/30/7 125/30/7 128/59/7
f 42/93/27 41/94/27 128/94/27 127/93/27
f 75/82/6 73/81/6 153/81/6 145/82/6
f 49/42/21 65/26/21 97/26/21 100/42/21
f 70/72/21 42/73/21 127/73/21 126/72/21
f 33/95/8 59/85/8 149/85/8 152/95/8
f 50/96/28 49/97/28 100/97/28 99/96/28
f 34/98/29 33/99/29 152/99/29 151/98/29
f 66/62/7 50/63/7 99/63/7 98/62/7
f 89/6/20 81/5/20 121/5/20 124/6/20
f 60/7/9 34/9/9 151/9/9 150/7/9
f 35/37/11 74/32/11 154/32/11 160/37/11
f 90/100/30 89/101/30 124/101/30 123/100/30
f 11/83/3 59/85/3 33/95/3 5/83/3
f 98/62/31 99/63/31 100/42/31 97/26/31
f 102/64/32 103/65/32 104/47/32 101/46/32
f 106/50/33 107/68/33 108/58/33 105/19/33
f 110/29/34 111/67/34 112/40/34 109/39/34
f 114/71/35 115/88/35 116/12/35 113/11/35
f 118/69/36 119/70/36 120/49/36 117/48/36
f 122/18/37 123/89/37 124/6/37 121/5/37
f 126/72/38 127/73/38 128/59/38 125/30/38
f 130/34/39 131/36/39 132/3/39 129/2/39
f 134/74/40 135/75/40 136/61/40 133/60/40
f 138/76/41 139/77/41 140/41/41 137/35/41
f 142/25/42 143/78/42 144/54/42 141/53/42
f 146/31/43 147/79/43 148/45/43 145/44/43
f 150/7/44 151/9/44 152/95/44 149/85/44
f 145/82/10 153/81/10 154/32/10 146/31/10
f 109/39/9 126/72/9 125/30/9 110/29/9
f 141/53/8 98/62/8 97/26/8 142/25/8
f 117/84/7 134/74/7 133/23/7 118/22/7
f 149/85/21 102/64/21 101/46/21 150/7/21
f 129/87/11 138/86/11 137/35/11 130/34/11
f 156/55/45 157/66/45 158/15/45 155/14/45
f 113/56/20 156/55/20 155/14/20 114/71/20
f 121/51/6 106/50/6 105/19/6 122/18/6
f 153/81/46 159/90/46 160/37/46 154/32/46
f 65/26/21 68/25/21 142/25/21 97/26/21
f 94/102/47 93/103/47 108/103/47 107/102/47
f 63/84/8 62/74/8 134/74/8 117/84/8
f 62/74/8 52/75/8 135/75/8 134/74/8
f 93/58/10 85/19/10 105/19/10 108/58/10
f 61/23/9 64/22/9 118/22/9 133/23/9
f 52/104/48 51/105/48 136/105/48 135/104/48
f 59/85/8 58/64/8 102/64/8 149/85/8
f 51/61/9 61/60/9 133/60/9 136/61/9
f 72/29/7 56/67/7 111/67/7 110/29/7
f 57/46/9 60/7/9 150/7/9 101/46/9
f 56/106/49 55/107/49 112/107/49 111/106/49
f 79/87/10 78/86/10 138/86/10 129/87/10
f 78/76/10 48/77/10 139/77/10 138/76/10
f 55/40/21 71/39/21 109/39/21 112/40/21
f 77/35/20 80/34/20 130/34/20 137/35/20
f 48/77/50 47/108/50 140/108/50 139/77/50
f 47/41/20 77/35/20 137/35/20 140/41/20
f 84/71/6 92/88/6 115/88/6 114/71/6
f 88/55/11 96/66/11 157/66/11 156/55/11
f 92/109/51 91/110/51 116/110/51 115/109/51
f 96/111/52 95/112/52 158/112/52 157/111/52
f 68/25/21 46/78/21 143/78/21 142/25/21
f 91/12/11 83/11/11 113/11/11 116/12/11
f 95/15/6 87/14/6 155/14/6 158/15/6
f 46/113/53 45/114/53 144/114/53 143/113/53
f 83/56/11 88/55/11 156/55/11 113/56/11
f 45/54/7 67/53/7 141/53/7 144/54/7
f 64/69/9 44/70/9 119/70/9 118/69/9
f 87/14/6 84/71/6 114/71/6 155/14/6
f 44/115/54 43/116/54 120/116/54 119/115/54
f 81/51/20 86/50/20 106/50/20 121/51/20
f 76/31/11 54/79/11 147/79/11 146/31/11
f 43/49/8 63/48/8 117/48/8 120/49/8
f 85/19/10 82/18/10 122/18/10 105/19/10
f 54/117/55 53/118/55 148/118/55 147/117/55
f 73/81/6 36/90/6 159/90/6 153/81/6
f 53/45/6 75/44/6 145/44/6 148/45/6
f 82/18/10 90/89/10 123/89/10 122/18/10
f 36/119/56 35/120/56 160/120/56 159/119/56
f 170/33/57 171/121/57 172/122/57 173/123/57 174/124/57 175/125/57 176/126/57 169/1/57
f 162/127/58 163/128/58 161/129/58 164/8/58 165/52/58 166/130/58 167/131/58 168/132/58
f 37/3/11 38/36/11 7/33/11 170/33/11 169/1/11 25/1/11
f 47/108/11 48/77/11 28/52/11 165/52/11 164/8/11 6/8/11
f 44/70/7 2/21/7 175/21/7 174/17/7 1/17/7 43/116/7
f 54/79/10 30/27/10 172/27/10 171/43/10 8/43/10 53/118/10
f 94/68/6 32/38/6 162/38/6 168/16/6 4/16/6 93/103/6
f 36/90/10 5/83/10 161/83/10 163/28/10 31/28/10 35/120/10
f 52/75/7 4/16/7 168/16/7 167/20/7 3/20/7 51/105/7
f 95/112/20 96/66/20 3/57/20 167/57/20 166/13/20 27/13/20
f 90/89/6 1/17/6 174/17/6 173/4/6 29/4/6 89/101/6
f 33/99/21 34/9/21 6/8/21 164/8/21 161/83/21 5/83/21
f 56/67/9 31/28/9 163/28/9 162/38/9 32/38/9 55/107/9
f 91/110/20 92/88/20 26/24/20 176/24/20 175/10/20 2/10/20
f 45/114/8 46/78/8 27/13/8 166/13/8 165/52/8 28/52/8
f 41/94/9 42/73/9 29/4/9 173/4/9 172/27/9 30/27/9
f 49/97/8 50/63/8 25/1/8 169/1/8 176/24/8 26/24/8
