# Blender 4.3.0
# www.blender.org
mtllib Roof.mtl
o Cube.001
v -7.637461 1.258250 5.035064
v -7.637461 1.258249 -5.035064
v 7.637461 1.258250 5.035064
v 7.637461 1.258249 -5.035064
v -7.637461 3.755764 -0.000000
v 7.637461 3.755764 -0.000000
v -7.637461 -0.010831 -7.111627
v -7.637461 -0.010830 7.111627
v -7.637461 1.291554 6.889481
v -7.637461 4.708905 -0.000000
v -7.637461 1.291553 -6.889481
v 7.637461 1.291553 -6.889481
v 7.637461 -0.010831 -7.111627
v 7.637461 -0.010830 7.111627
v 7.637461 4.708905 -0.000000
v 7.637461 1.291554 6.889481
v -6.671900 3.355768 -0.000000
v -7.451597 3.755764 -0.000000
v -7.451597 1.258249 -5.035064
v -6.671900 1.360338 -4.022846
v -7.451597 1.258250 5.035064
v -6.671900 1.360339 4.022846
v 7.527308 3.755764 -0.000000
v 6.747611 3.355768 -0.000000
v 6.747611 1.360339 4.022846
v 7.527308 1.258250 5.035064
v 7.527308 1.258249 -5.035064
v 6.747611 1.360338 -4.022846
vn -0.5690 -0.5303 0.6285
vn -0.8139 0.0977 0.5728
vn -0.9655 0.2605 -0.0000
vn -0.5690 -0.5303 -0.6285
vn -0.8139 0.0977 -0.5728
vn -0.0000 0.1681 -0.9858
vn 1.0000 -0.0000 -0.0000
vn 0.9925 0.0279 0.1190
vn 0.9925 0.0279 -0.1190
vn 0.6659 0.1254 0.7355
vn 0.8139 0.0977 0.5728
vn -0.0000 -1.0000 -0.0000
vn -0.0000 0.8958 0.4444
vn -0.0000 0.8958 -0.4444
vn -1.0000 -0.0000 -0.0000
vn 0.8220 -0.5695 -0.0000
vn -0.0000 1.0000 -0.0000
vn -0.0000 -0.8958 -0.4444
vn -0.0000 -0.8958 0.4444
vn -0.4176 -0.8140 0.4038
vn -0.1298 0.9915 -0.0000
vn 0.4176 -0.8140 -0.4038
vn -0.4176 -0.8140 -0.4038
vn 0.4176 -0.8140 0.4038
vn 0.1298 0.9915 -0.0000
vt 0.375000 1.000000
vt 0.625000 0.000000
vt 0.599910 0.033778
vt 0.375000 0.250000
vt 0.625000 0.250000
vt 0.625000 0.500000
vt 0.375000 0.500000
vt 0.599910 0.533778
vt 0.599910 0.716222
vt 0.375000 0.750000
vt 0.625000 0.750000
vt 0.625000 1.000000
vt 0.125000 0.500000
vt 0.125000 0.750000
vt 0.625000 0.625000
vt 0.875000 0.625000
vt 0.875000 0.750000
vt 0.875000 0.500000
vt 0.599910 0.216222
vt 0.623109 0.125000
vt 0.625000 0.125000
vt 0.000000 0.000000
vt 0.623109 0.625000
vt 0.571353 0.107685
vt 0.073510 0.007814
vt 0.552818 0.034802
vt 0.600858 0.697883
vt 0.600858 0.552117
vt 0.619394 0.625000
s 1
f 8/1/1 9/2/2 1/3/3
f 7/4/4 11/5/5 12/6/6 13/7/6
f 13/7/7 4/8/8 3/9/9 14/10/10
f 14/10/10 16/11/11 9/12/2 8/1/1
f 7/13/4 13/7/12 14/10/12 8/14/1
f 15/15/13 10/16/13 9/17/13 16/11/13
f 12/6/14 11/18/14 10/16/14 15/15/14
f 2/19/3 5/20/15 10/21/15 11/5/5
f 2/19/3 11/5/5 7/4/4
f 4/8/8 13/7/7 12/6/7
f 7/22/4 8/22/1 1/22/3 2/22/3
f 3/9/9 6/23/16 15/15/7 16/11/11
f 3/9/9 16/11/11 14/10/10
f 5/20/15 1/3/3 9/2/2 10/21/15
f 6/23/16 4/8/8 12/6/7 15/15/7
f 2/22/3 1/22/3 21/22/17 19/22/17
f 1/3/18 5/20/18 18/20/18 21/3/18
f 6/23/16 23/23/19 27/8/19 4/8/8
f 17/24/15 20/25/15 22/26/15
f 4/8/8 27/8/17 26/9/17 3/9/9
f 25/27/7 28/28/7 24/29/7
f 3/9/9 26/9/18 23/23/18 6/23/16
f 18/20/20 19/22/20 20/25/20 17/24/20
f 22/26/21 20/25/21 19/22/21 21/3/21
f 24/29/22 23/23/22 26/9/22 25/27/22
f 21/3/23 18/20/23 17/24/23 22/26/23
f 28/28/24 27/8/24 23/23/24 24/29/24
f 25/27/25 26/9/25 27/8/25 28/28/25
f 5/20/19 2/19/19 19/19/19 18/20/19
